<?xml version="1.0" encoding="utf-8" standalone="no"?>
<!DOCTYPE svg PUBLIC "-//W3C//DTD SVG 1.1//EN"
  "http://www.w3.org/Graphics/SVG/1.1/DTD/svg11.dtd">
<!-- Created with matplotlib (https://matplotlib.org/) -->
<svg height="434.16pt" version="1.1" viewBox="0 0 345.6 434.16" width="345.6pt" xmlns="http://www.w3.org/2000/svg" xmlns:xlink="http://www.w3.org/1999/xlink">
 <metadata>
  <rdf:RDF xmlns:cc="http://creativecommons.org/ns#" xmlns:dc="http://purl.org/dc/elements/1.1/" xmlns:rdf="http://www.w3.org/1999/02/22-rdf-syntax-ns#">
   <cc:Work>
    <dc:type rdf:resource="http://purl.org/dc/dcmitype/StillImage"/>
    <dc:date>2021-07-21T12:24:26.354492</dc:date>
    <dc:format>image/svg+xml</dc:format>
    <dc:creator>
     <cc:Agent>
      <dc:title>Matplotlib v3.3.4, https://matplotlib.org/</dc:title>
     </cc:Agent>
    </dc:creator>
   </cc:Work>
  </rdf:RDF>
 </metadata>
 <defs>
  <style type="text/css">*{stroke-linecap:butt;stroke-linejoin:round;}</style>
 </defs>
 <g id="figure_1">
  <g id="patch_1">
   <path d="M 0 434.16 
L 345.6 434.16 
L 345.6 0 
L 0 0 
z
" style="fill:#ffffff;"/>
  </g>
  <g id="axes_1">
   <g id="patch_2">
    <path d="M 43.28 134.910447 
L 174.93912 134.910447 
L 174.93912 24.45 
L 43.28 24.45 
z
" style="fill:#ffffff;"/>
   </g>
   <g id="matplotlib.axis_1">
    <g id="xtick_1">
     <g id="line2d_1">
      <defs>
       <path d="M 0 0 
L 0 3.5 
" id="md26be22a7e" style="stroke:#000000;stroke-width:0.8;"/>
      </defs>
      <g>
       <use style="stroke:#000000;stroke-width:0.8;" x="49.264505" xlink:href="#md26be22a7e" y="134.910447"/>
      </g>
     </g>
     <g id="text_1">
      <!-- 0 -->
      <g transform="translate(47.355755 142.96951)scale(0.06 -0.06)">
       <defs>
        <path d="M 31.78125 3.421875 
Q 39.265625 3.421875 42.96875 11.625 
Q 46.6875 19.828125 46.6875 36.375 
Q 46.6875 52.984375 42.96875 61.1875 
Q 39.265625 69.390625 31.78125 69.390625 
Q 24.3125 69.390625 20.59375 61.1875 
Q 16.890625 52.984375 16.890625 36.375 
Q 16.890625 19.828125 20.59375 11.625 
Q 24.3125 3.421875 31.78125 3.421875 
z
M 31.78125 -1.421875 
Q 19.921875 -1.421875 13.25 8.53125 
Q 6.59375 18.5 6.59375 36.375 
Q 6.59375 54.296875 13.25 64.25 
Q 19.921875 74.21875 31.78125 74.21875 
Q 43.703125 74.21875 50.34375 64.25 
Q 56.984375 54.296875 56.984375 36.375 
Q 56.984375 18.5 50.34375 8.53125 
Q 43.703125 -1.421875 31.78125 -1.421875 
z
" id="DejaVuSerif-48"/>
       </defs>
       <use xlink:href="#DejaVuSerif-48"/>
      </g>
     </g>
    </g>
    <g id="xtick_2">
     <g id="line2d_2">
      <g>
       <use style="stroke:#000000;stroke-width:0.8;" x="79.187033" xlink:href="#md26be22a7e" y="134.910447"/>
      </g>
     </g>
     <g id="text_2">
      <!-- 10 -->
      <g transform="translate(75.369533 142.96951)scale(0.06 -0.06)">
       <defs>
        <path d="M 14.203125 0 
L 14.203125 5.171875 
L 26.90625 5.171875 
L 26.90625 65.828125 
L 12.203125 56.296875 
L 12.203125 62.703125 
L 29.984375 74.21875 
L 36.71875 74.21875 
L 36.71875 5.171875 
L 49.421875 5.171875 
L 49.421875 0 
z
" id="DejaVuSerif-49"/>
       </defs>
       <use xlink:href="#DejaVuSerif-49"/>
       <use x="63.623047" xlink:href="#DejaVuSerif-48"/>
      </g>
     </g>
    </g>
    <g id="xtick_3">
     <g id="line2d_3">
      <g>
       <use style="stroke:#000000;stroke-width:0.8;" x="109.10956" xlink:href="#md26be22a7e" y="134.910447"/>
      </g>
     </g>
     <g id="text_3">
      <!-- 20 -->
      <g transform="translate(105.29206 142.96951)scale(0.06 -0.06)">
       <defs>
        <path d="M 12.796875 55.515625 
L 7.328125 55.515625 
L 7.328125 68.5 
Q 12.546875 71.296875 17.84375 72.75 
Q 23.140625 74.21875 28.21875 74.21875 
Q 39.59375 74.21875 46.1875 68.703125 
Q 52.78125 63.1875 52.78125 53.71875 
Q 52.78125 43.015625 37.84375 28.125 
Q 36.671875 27 36.078125 26.421875 
L 17.671875 8.015625 
L 48.09375 8.015625 
L 48.09375 17 
L 53.8125 17 
L 53.8125 0 
L 6.78125 0 
L 6.78125 5.328125 
L 28.90625 27.390625 
Q 36.234375 34.71875 39.359375 40.84375 
Q 42.484375 46.96875 42.484375 53.71875 
Q 42.484375 61.078125 38.640625 65.234375 
Q 34.8125 69.390625 28.078125 69.390625 
Q 21.09375 69.390625 17.28125 65.921875 
Q 13.484375 62.453125 12.796875 55.515625 
z
" id="DejaVuSerif-50"/>
       </defs>
       <use xlink:href="#DejaVuSerif-50"/>
       <use x="63.623047" xlink:href="#DejaVuSerif-48"/>
      </g>
     </g>
    </g>
    <g id="xtick_4">
     <g id="line2d_4">
      <g>
       <use style="stroke:#000000;stroke-width:0.8;" x="139.032087" xlink:href="#md26be22a7e" y="134.910447"/>
      </g>
     </g>
     <g id="text_4">
      <!-- 30 -->
      <g transform="translate(135.214587 142.96951)scale(0.06 -0.06)">
       <defs>
        <path d="M 9.71875 69.828125 
Q 15.4375 71.96875 20.671875 73.09375 
Q 25.921875 74.21875 30.515625 74.21875 
Q 41.21875 74.21875 47.21875 69.59375 
Q 53.21875 64.984375 53.21875 56.78125 
Q 53.21875 50.203125 49.0625 45.78125 
Q 44.921875 41.359375 37.3125 39.796875 
Q 46.296875 38.53125 51.25 33.28125 
Q 56.203125 28.03125 56.203125 19.671875 
Q 56.203125 9.46875 49.34375 4.015625 
Q 42.484375 -1.421875 29.59375 -1.421875 
Q 23.875 -1.421875 18.421875 -0.1875 
Q 12.984375 1.03125 7.625 3.515625 
L 7.625 17.671875 
L 13.09375 17.671875 
Q 13.578125 10.640625 17.828125 7.03125 
Q 22.078125 3.421875 29.78125 3.421875 
Q 37.25 3.421875 41.578125 7.734375 
Q 45.90625 12.0625 45.90625 19.578125 
Q 45.90625 28.171875 41.453125 32.59375 
Q 37.015625 37.015625 28.421875 37.015625 
L 23.78125 37.015625 
L 23.78125 42 
L 26.21875 42 
Q 34.765625 42 39.03125 45.53125 
Q 43.3125 49.078125 43.3125 56.203125 
Q 43.3125 62.59375 39.796875 65.984375 
Q 36.28125 69.390625 29.6875 69.390625 
Q 23.09375 69.390625 19.453125 66.265625 
Q 15.828125 63.140625 15.1875 56.984375 
L 9.71875 56.984375 
z
" id="DejaVuSerif-51"/>
       </defs>
       <use xlink:href="#DejaVuSerif-51"/>
       <use x="63.623047" xlink:href="#DejaVuSerif-48"/>
      </g>
     </g>
    </g>
    <g id="xtick_5">
     <g id="line2d_5">
      <g>
       <use style="stroke:#000000;stroke-width:0.8;" x="168.954614" xlink:href="#md26be22a7e" y="134.910447"/>
      </g>
     </g>
     <g id="text_5">
      <!-- 40 -->
      <g transform="translate(165.137114 142.96951)scale(0.06 -0.06)">
       <defs>
        <path d="M 34.90625 24.703125 
L 34.90625 63.484375 
L 10.015625 24.703125 
z
M 56.390625 0 
L 23.1875 0 
L 23.1875 5.171875 
L 34.90625 5.171875 
L 34.90625 19.484375 
L 3.078125 19.484375 
L 3.078125 24.8125 
L 35.015625 74.21875 
L 44.671875 74.21875 
L 44.671875 24.703125 
L 58.59375 24.703125 
L 58.59375 19.484375 
L 44.671875 19.484375 
L 44.671875 5.171875 
L 56.390625 5.171875 
z
" id="DejaVuSerif-52"/>
       </defs>
       <use xlink:href="#DejaVuSerif-52"/>
       <use x="63.623047" xlink:href="#DejaVuSerif-48"/>
      </g>
     </g>
    </g>
    <g id="text_6">
     <!-- Sample count -->
     <g transform="translate(88.25581 148.776385)scale(0.06 -0.06)">
      <defs>
       <path d="M 9.28125 3.515625 
L 9.28125 20.125 
L 14.890625 20.0625 
Q 15.140625 11.765625 19.703125 7.78125 
Q 24.265625 3.8125 33.59375 3.8125 
Q 42.28125 3.8125 46.84375 7.25 
Q 51.421875 10.6875 51.421875 17.28125 
Q 51.421875 22.5625 48.65625 25.390625 
Q 45.90625 28.21875 37.015625 30.90625 
L 27.390625 33.796875 
Q 16.9375 36.96875 12.671875 41.703125 
Q 8.40625 46.4375 8.40625 54.6875 
Q 8.40625 63.96875 14.984375 69.09375 
Q 21.578125 74.21875 33.5 74.21875 
Q 38.578125 74.21875 44.625 73.109375 
Q 50.6875 72.015625 57.515625 69.921875 
L 57.515625 54.390625 
L 52 54.390625 
Q 51.171875 62.109375 46.84375 65.546875 
Q 42.53125 69 33.6875 69 
Q 25.984375 69 21.953125 65.84375 
Q 17.921875 62.703125 17.921875 56.6875 
Q 17.921875 51.46875 20.9375 48.484375 
Q 23.96875 45.515625 33.796875 42.578125 
L 42.828125 39.890625 
Q 52.734375 36.921875 56.953125 32.296875 
Q 61.1875 27.6875 61.1875 19.921875 
Q 61.1875 9.328125 54.390625 3.953125 
Q 47.609375 -1.421875 34.1875 -1.421875 
Q 28.171875 -1.421875 21.9375 -0.1875 
Q 15.71875 1.03125 9.28125 3.515625 
z
" id="DejaVuSerif-83"/>
       <path d="M 39.796875 16.3125 
L 39.796875 27.296875 
L 28.21875 27.296875 
Q 21.53125 27.296875 18.25 24.40625 
Q 14.984375 21.53125 14.984375 15.578125 
Q 14.984375 10.15625 18.296875 6.984375 
Q 21.625 3.8125 27.296875 3.8125 
Q 32.90625 3.8125 36.34375 7.28125 
Q 39.796875 10.75 39.796875 16.3125 
z
M 48.78125 32.421875 
L 48.78125 5.171875 
L 56.78125 5.171875 
L 56.78125 0 
L 39.796875 0 
L 39.796875 5.609375 
Q 36.8125 2 32.90625 0.28125 
Q 29 -1.421875 23.78125 -1.421875 
Q 15.140625 -1.421875 10.0625 3.171875 
Q 4.984375 7.765625 4.984375 15.578125 
Q 4.984375 23.640625 10.796875 28.078125 
Q 16.609375 32.515625 27.203125 32.515625 
L 39.796875 32.515625 
L 39.796875 36.078125 
Q 39.796875 42 36.203125 45.234375 
Q 32.625 48.484375 26.125 48.484375 
Q 20.75 48.484375 17.578125 46.046875 
Q 14.40625 43.609375 13.625 38.8125 
L 8.984375 38.8125 
L 8.984375 49.3125 
Q 13.671875 51.3125 18.09375 52.3125 
Q 22.515625 53.328125 26.703125 53.328125 
Q 37.5 53.328125 43.140625 47.96875 
Q 48.78125 42.625 48.78125 32.421875 
z
" id="DejaVuSerif-97"/>
       <path d="M 51.8125 41.796875 
Q 54.390625 47.515625 58.421875 50.421875 
Q 62.453125 53.328125 67.828125 53.328125 
Q 75.984375 53.328125 79.984375 48.265625 
Q 83.984375 43.21875 83.984375 33.015625 
L 83.984375 5.171875 
L 92.09375 5.171875 
L 92.09375 0 
L 67.1875 0 
L 67.1875 5.171875 
L 75 5.171875 
L 75 31.984375 
Q 75 39.9375 72.65625 43.3125 
Q 70.3125 46.6875 64.890625 46.6875 
Q 58.890625 46.6875 55.734375 42.140625 
Q 52.59375 37.59375 52.59375 28.90625 
L 52.59375 5.171875 
L 60.40625 5.171875 
L 60.40625 0 
L 35.796875 0 
L 35.796875 5.171875 
L 43.609375 5.171875 
L 43.609375 32.328125 
Q 43.609375 40.09375 41.265625 43.390625 
Q 38.921875 46.6875 33.5 46.6875 
Q 27.484375 46.6875 24.328125 42.140625 
Q 21.1875 37.59375 21.1875 28.90625 
L 21.1875 5.171875 
L 29 5.171875 
L 29 0 
L 4.109375 0 
L 4.109375 5.171875 
L 12.203125 5.171875 
L 12.203125 46.78125 
L 3.609375 46.78125 
L 3.609375 51.90625 
L 21.1875 51.90625 
L 21.1875 42.671875 
Q 23.6875 47.859375 27.53125 50.59375 
Q 31.390625 53.328125 36.28125 53.328125 
Q 42.328125 53.328125 46.375 50.3125 
Q 50.4375 47.3125 51.8125 41.796875 
z
" id="DejaVuSerif-109"/>
       <path d="M 20.515625 28.515625 
L 20.515625 23.390625 
Q 20.515625 14.015625 24.09375 9.109375 
Q 27.6875 4.203125 34.515625 4.203125 
Q 41.40625 4.203125 44.9375 9.71875 
Q 48.484375 15.234375 48.484375 25.984375 
Q 48.484375 36.765625 44.9375 42.234375 
Q 41.40625 47.703125 34.515625 47.703125 
Q 27.6875 47.703125 24.09375 42.765625 
Q 20.515625 37.84375 20.515625 28.515625 
z
M 11.53125 46.6875 
L 2.875 46.6875 
L 2.875 51.90625 
L 20.515625 51.90625 
L 20.515625 43.796875 
Q 23.140625 48.6875 27.21875 51 
Q 31.296875 53.328125 37.3125 53.328125 
Q 46.875 53.328125 52.921875 45.75 
Q 58.984375 38.1875 58.984375 25.984375 
Q 58.984375 13.765625 52.921875 6.171875 
Q 46.875 -1.421875 37.3125 -1.421875 
Q 31.296875 -1.421875 27.21875 0.890625 
Q 23.140625 3.21875 20.515625 8.109375 
L 20.515625 -15.578125 
L 29 -15.578125 
L 29 -20.796875 
L 2.875 -20.796875 
L 2.875 -15.578125 
L 11.53125 -15.578125 
z
" id="DejaVuSerif-112"/>
       <path d="M 20.515625 5.171875 
L 29 5.171875 
L 29 0 
L 2.875 0 
L 2.875 5.171875 
L 11.53125 5.171875 
L 11.53125 70.796875 
L 2.875 70.796875 
L 2.875 75.984375 
L 20.515625 75.984375 
z
" id="DejaVuSerif-108"/>
       <path d="M 54.203125 25 
L 15.484375 25 
L 15.484375 24.609375 
Q 15.484375 14.109375 19.4375 8.765625 
Q 23.390625 3.421875 31.109375 3.421875 
Q 37.015625 3.421875 40.796875 6.515625 
Q 44.578125 9.625 46.09375 15.71875 
L 53.328125 15.71875 
Q 51.171875 7.171875 45.375 2.875 
Q 39.59375 -1.421875 30.171875 -1.421875 
Q 18.796875 -1.421875 11.890625 6.078125 
Q 4.984375 13.578125 4.984375 25.984375 
Q 4.984375 38.28125 11.765625 45.796875 
Q 18.5625 53.328125 29.59375 53.328125 
Q 41.359375 53.328125 47.65625 46.0625 
Q 53.953125 38.8125 54.203125 25 
z
M 43.609375 30.171875 
Q 43.3125 39.265625 39.765625 43.875 
Q 36.234375 48.484375 29.59375 48.484375 
Q 23.390625 48.484375 19.828125 43.84375 
Q 16.265625 39.203125 15.484375 30.171875 
z
" id="DejaVuSerif-101"/>
       <path id="DejaVuSerif-32"/>
       <path d="M 51.421875 15.578125 
Q 49.515625 7.28125 44.09375 2.921875 
Q 38.671875 -1.421875 30.078125 -1.421875 
Q 18.75 -1.421875 11.859375 6.078125 
Q 4.984375 13.578125 4.984375 25.984375 
Q 4.984375 38.421875 11.859375 45.875 
Q 18.75 53.328125 30.078125 53.328125 
Q 35.015625 53.328125 39.890625 52.171875 
Q 44.78125 51.03125 49.703125 48.6875 
L 49.703125 35.40625 
L 44.484375 35.40625 
Q 43.453125 42.234375 40.015625 45.359375 
Q 36.578125 48.484375 30.171875 48.484375 
Q 22.90625 48.484375 19.1875 42.84375 
Q 15.484375 37.203125 15.484375 25.984375 
Q 15.484375 14.75 19.171875 9.078125 
Q 22.859375 3.421875 30.171875 3.421875 
Q 35.984375 3.421875 39.453125 6.4375 
Q 42.921875 9.46875 44.1875 15.578125 
z
" id="DejaVuSerif-99"/>
       <path d="M 30.078125 3.421875 
Q 37.3125 3.421875 40.984375 9.125 
Q 44.671875 14.84375 44.671875 25.984375 
Q 44.671875 37.109375 40.984375 42.796875 
Q 37.3125 48.484375 30.078125 48.484375 
Q 22.859375 48.484375 19.171875 42.796875 
Q 15.484375 37.109375 15.484375 25.984375 
Q 15.484375 14.84375 19.1875 9.125 
Q 22.90625 3.421875 30.078125 3.421875 
z
M 30.078125 -1.421875 
Q 18.75 -1.421875 11.859375 6.078125 
Q 4.984375 13.578125 4.984375 25.984375 
Q 4.984375 38.375 11.84375 45.84375 
Q 18.703125 53.328125 30.078125 53.328125 
Q 41.453125 53.328125 48.3125 45.84375 
Q 55.171875 38.375 55.171875 25.984375 
Q 55.171875 13.578125 48.3125 6.078125 
Q 41.453125 -1.421875 30.078125 -1.421875 
z
" id="DejaVuSerif-111"/>
       <path d="M 35.40625 51.90625 
L 52.203125 51.90625 
L 52.203125 5.171875 
L 60.6875 5.171875 
L 60.6875 0 
L 43.21875 0 
L 43.21875 9.1875 
Q 40.71875 4 36.765625 1.28125 
Q 32.8125 -1.421875 27.59375 -1.421875 
Q 18.953125 -1.421875 14.875 3.484375 
Q 10.796875 8.40625 10.796875 18.890625 
L 10.796875 46.6875 
L 2.6875 46.6875 
L 2.6875 51.90625 
L 19.828125 51.90625 
L 19.828125 21.6875 
Q 19.828125 12.203125 22.140625 8.6875 
Q 24.46875 5.171875 30.421875 5.171875 
Q 36.671875 5.171875 39.9375 9.765625 
Q 43.21875 14.359375 43.21875 23.09375 
L 43.21875 46.6875 
L 35.40625 46.6875 
z
" id="DejaVuSerif-117"/>
       <path d="M 4.109375 0 
L 4.109375 5.171875 
L 12.203125 5.171875 
L 12.203125 46.6875 
L 3.609375 46.6875 
L 3.609375 51.90625 
L 21.1875 51.90625 
L 21.1875 42.671875 
Q 23.6875 47.953125 27.65625 50.640625 
Q 31.640625 53.328125 36.921875 53.328125 
Q 45.515625 53.328125 49.5625 48.390625 
Q 53.609375 43.453125 53.609375 33.015625 
L 53.609375 5.171875 
L 61.625 5.171875 
L 61.625 0 
L 36.8125 0 
L 36.8125 5.171875 
L 44.578125 5.171875 
L 44.578125 30.171875 
Q 44.578125 39.703125 42.234375 43.234375 
Q 39.890625 46.78125 33.984375 46.78125 
Q 27.734375 46.78125 24.453125 42.203125 
Q 21.1875 37.640625 21.1875 28.90625 
L 21.1875 5.171875 
L 29 5.171875 
L 29 0 
z
" id="DejaVuSerif-110"/>
       <path d="M 10.796875 46.6875 
L 2.875 46.6875 
L 2.875 51.90625 
L 10.796875 51.90625 
L 10.796875 68.015625 
L 19.828125 68.015625 
L 19.828125 51.90625 
L 36.71875 51.90625 
L 36.71875 46.6875 
L 19.828125 46.6875 
L 19.828125 13.71875 
Q 19.828125 7.125 21.09375 5.265625 
Q 22.359375 3.421875 25.78125 3.421875 
Q 29.296875 3.421875 30.90625 5.484375 
Q 32.515625 7.5625 32.625 12.203125 
L 39.40625 12.203125 
Q 39.015625 5.125 35.546875 1.84375 
Q 32.078125 -1.421875 25 -1.421875 
Q 17.234375 -1.421875 14.015625 2.015625 
Q 10.796875 5.46875 10.796875 13.71875 
z
" id="DejaVuSerif-116"/>
      </defs>
      <use xlink:href="#DejaVuSerif-83"/>
      <use x="68.505859" xlink:href="#DejaVuSerif-97"/>
      <use x="128.125" xlink:href="#DejaVuSerif-109"/>
      <use x="222.949219" xlink:href="#DejaVuSerif-112"/>
      <use x="286.962891" xlink:href="#DejaVuSerif-108"/>
      <use x="318.945312" xlink:href="#DejaVuSerif-101"/>
      <use x="378.125" xlink:href="#DejaVuSerif-32"/>
      <use x="409.912109" xlink:href="#DejaVuSerif-99"/>
      <use x="465.917969" xlink:href="#DejaVuSerif-111"/>
      <use x="526.123047" xlink:href="#DejaVuSerif-117"/>
      <use x="590.527344" xlink:href="#DejaVuSerif-110"/>
      <use x="654.931641" xlink:href="#DejaVuSerif-116"/>
     </g>
    </g>
   </g>
   <g id="matplotlib.axis_2">
    <g id="ytick_1">
     <g id="line2d_6">
      <defs>
       <path d="M 0 0 
L -3.5 0 
" id="me596497500" style="stroke:#000000;stroke-width:0.8;"/>
      </defs>
      <g>
       <use style="stroke:#000000;stroke-width:0.8;" x="43.28" xlink:href="#me596497500" y="122.937462"/>
      </g>
     </g>
     <g id="text_7">
      <!-- 40 -->
      <g transform="translate(38.532187 128.29293)rotate(-90)scale(0.06 -0.06)">
       <use xlink:href="#DejaVuSerif-52"/>
       <use x="63.623047" xlink:href="#DejaVuSerif-48"/>
      </g>
     </g>
    </g>
    <g id="ytick_2">
     <g id="line2d_7">
      <g>
       <use style="stroke:#000000;stroke-width:0.8;" x="43.28" xlink:href="#me596497500" y="107.488448"/>
      </g>
     </g>
     <g id="text_8">
      <!-- 60 -->
      <g transform="translate(38.532187 112.843917)rotate(-90)scale(0.06 -0.06)">
       <defs>
        <path d="M 32.71875 3.421875 
Q 39.59375 3.421875 43.296875 8.46875 
Q 47.015625 13.53125 47.015625 23 
Q 47.015625 32.46875 43.296875 37.515625 
Q 39.59375 42.578125 32.71875 42.578125 
Q 25.734375 42.578125 22.0625 37.6875 
Q 18.40625 32.8125 18.40625 23.578125 
Q 18.40625 13.875 22.109375 8.640625 
Q 25.828125 3.421875 32.71875 3.421875 
z
M 16.796875 40.140625 
Q 20.125 43.796875 24.3125 45.59375 
Q 28.515625 47.40625 33.796875 47.40625 
Q 44.671875 47.40625 51 40.859375 
Q 57.328125 34.328125 57.328125 23 
Q 57.328125 11.921875 50.515625 5.25 
Q 43.703125 -1.421875 32.328125 -1.421875 
Q 19.96875 -1.421875 13.328125 7.78125 
Q 6.6875 17 6.6875 34.078125 
Q 6.6875 53.21875 14.546875 63.71875 
Q 22.40625 74.21875 36.71875 74.21875 
Q 40.578125 74.21875 44.828125 73.484375 
Q 49.078125 72.75 53.515625 71.296875 
L 53.515625 59.28125 
L 48 59.28125 
Q 47.40625 64.203125 44.234375 66.796875 
Q 41.0625 69.390625 35.6875 69.390625 
Q 26.21875 69.390625 21.578125 62.203125 
Q 16.9375 55.03125 16.796875 40.140625 
z
" id="DejaVuSerif-54"/>
       </defs>
       <use xlink:href="#DejaVuSerif-54"/>
       <use x="63.623047" xlink:href="#DejaVuSerif-48"/>
      </g>
     </g>
    </g>
    <g id="ytick_3">
     <g id="line2d_8">
      <g>
       <use style="stroke:#000000;stroke-width:0.8;" x="43.28" xlink:href="#me596497500" y="92.039434"/>
      </g>
     </g>
     <g id="text_9">
      <!-- 80 -->
      <g transform="translate(38.532187 97.394903)rotate(-90)scale(0.06 -0.06)">
       <defs>
        <path d="M 46.578125 19.921875 
Q 46.578125 27.734375 42.6875 32.046875 
Q 38.8125 36.375 31.78125 36.375 
Q 24.75 36.375 20.875 32.046875 
Q 17 27.734375 17 19.921875 
Q 17 12.0625 20.875 7.734375 
Q 24.75 3.421875 31.78125 3.421875 
Q 38.8125 3.421875 42.6875 7.734375 
Q 46.578125 12.0625 46.578125 19.921875 
z
M 44.578125 55.328125 
Q 44.578125 61.96875 41.203125 65.671875 
Q 37.84375 69.390625 31.78125 69.390625 
Q 25.78125 69.390625 22.390625 65.671875 
Q 19 61.96875 19 55.328125 
Q 19 48.640625 22.390625 44.921875 
Q 25.78125 41.21875 31.78125 41.21875 
Q 37.84375 41.21875 41.203125 44.921875 
Q 44.578125 48.640625 44.578125 55.328125 
z
M 39.3125 38.8125 
Q 47.609375 37.703125 52.25 32.6875 
Q 56.890625 27.6875 56.890625 19.921875 
Q 56.890625 9.671875 50.390625 4.125 
Q 43.890625 -1.421875 31.78125 -1.421875 
Q 19.734375 -1.421875 13.203125 4.125 
Q 6.6875 9.671875 6.6875 19.921875 
Q 6.6875 27.6875 11.328125 32.6875 
Q 15.96875 37.703125 24.3125 38.8125 
Q 16.9375 40.140625 13 44.40625 
Q 9.078125 48.6875 9.078125 55.328125 
Q 9.078125 64.109375 15.125 69.15625 
Q 21.1875 74.21875 31.78125 74.21875 
Q 42.390625 74.21875 48.4375 69.15625 
Q 54.5 64.109375 54.5 55.328125 
Q 54.5 48.6875 50.5625 44.40625 
Q 46.625 40.140625 39.3125 38.8125 
z
" id="DejaVuSerif-56"/>
       </defs>
       <use xlink:href="#DejaVuSerif-56"/>
       <use x="63.623047" xlink:href="#DejaVuSerif-48"/>
      </g>
     </g>
    </g>
    <g id="ytick_4">
     <g id="line2d_9">
      <g>
       <use style="stroke:#000000;stroke-width:0.8;" x="43.28" xlink:href="#me596497500" y="76.590421"/>
      </g>
     </g>
     <g id="text_10">
      <!-- 100 -->
      <g transform="translate(38.532187 85.76339)rotate(-90)scale(0.06 -0.06)">
       <use xlink:href="#DejaVuSerif-49"/>
       <use x="63.623047" xlink:href="#DejaVuSerif-48"/>
       <use x="127.246094" xlink:href="#DejaVuSerif-48"/>
      </g>
     </g>
    </g>
    <g id="ytick_5">
     <g id="line2d_10">
      <g>
       <use style="stroke:#000000;stroke-width:0.8;" x="43.28" xlink:href="#me596497500" y="61.141407"/>
      </g>
     </g>
     <g id="text_11">
      <!-- 120 -->
      <g transform="translate(38.532187 70.314376)rotate(-90)scale(0.06 -0.06)">
       <use xlink:href="#DejaVuSerif-49"/>
       <use x="63.623047" xlink:href="#DejaVuSerif-50"/>
       <use x="127.246094" xlink:href="#DejaVuSerif-48"/>
      </g>
     </g>
    </g>
    <g id="ytick_6">
     <g id="line2d_11">
      <g>
       <use style="stroke:#000000;stroke-width:0.8;" x="43.28" xlink:href="#me596497500" y="45.692394"/>
      </g>
     </g>
     <g id="text_12">
      <!-- 140 -->
      <g transform="translate(38.532187 54.865362)rotate(-90)scale(0.06 -0.06)">
       <use xlink:href="#DejaVuSerif-49"/>
       <use x="63.623047" xlink:href="#DejaVuSerif-52"/>
       <use x="127.246094" xlink:href="#DejaVuSerif-48"/>
      </g>
     </g>
    </g>
    <g id="ytick_7">
     <g id="line2d_12">
      <g>
       <use style="stroke:#000000;stroke-width:0.8;" x="43.28" xlink:href="#me596497500" y="30.24338"/>
      </g>
     </g>
     <g id="text_13">
      <!-- 160 -->
      <g transform="translate(38.532187 39.416349)rotate(-90)scale(0.06 -0.06)">
       <use xlink:href="#DejaVuSerif-49"/>
       <use x="63.623047" xlink:href="#DejaVuSerif-54"/>
       <use x="127.246094" xlink:href="#DejaVuSerif-48"/>
      </g>
     </g>
    </g>
    <g id="text_14">
     <!-- CPU [%] -->
     <g transform="translate(32.725313 92.614911)rotate(-90)scale(0.06 -0.06)">
      <defs>
       <path d="M 70.515625 19.28125 
Q 67.28125 9.078125 59.6875 3.828125 
Q 52.09375 -1.421875 40.484375 -1.421875 
Q 33.34375 -1.421875 27.234375 1.015625 
Q 21.140625 3.46875 16.40625 8.203125 
Q 10.9375 13.671875 8.265625 20.625 
Q 5.609375 27.59375 5.609375 36.375 
Q 5.609375 53.375 15.421875 63.796875 
Q 25.25 74.21875 41.3125 74.21875 
Q 47.265625 74.21875 54 72.65625 
Q 60.75 71.09375 68.5 67.921875 
L 68.5 51.125 
L 62.984375 51.125 
Q 61.1875 60.296875 55.734375 64.640625 
Q 50.296875 69 40.484375 69 
Q 28.8125 69 22.796875 60.71875 
Q 16.796875 52.4375 16.796875 36.375 
Q 16.796875 20.359375 22.796875 12.078125 
Q 28.8125 3.8125 40.484375 3.8125 
Q 48.640625 3.8125 53.90625 7.6875 
Q 59.1875 11.578125 61.53125 19.28125 
z
" id="DejaVuSerif-67"/>
       <path d="M 24.703125 37.109375 
L 37.59375 37.109375 
Q 44.875 37.109375 48.671875 41.03125 
Q 52.484375 44.96875 52.484375 52.390625 
Q 52.484375 59.859375 48.671875 63.765625 
Q 44.875 67.671875 37.59375 67.671875 
L 24.703125 67.671875 
z
M 5.515625 0 
L 5.515625 5.171875 
L 14.796875 5.171875 
L 14.796875 67.671875 
L 5.515625 67.671875 
L 5.515625 72.90625 
L 39.984375 72.90625 
Q 50.921875 72.90625 57.3125 67.359375 
Q 63.71875 61.8125 63.71875 52.390625 
Q 63.71875 43.015625 57.3125 37.453125 
Q 50.921875 31.890625 39.984375 31.890625 
L 24.703125 31.890625 
L 24.703125 5.171875 
L 35.984375 5.171875 
L 35.984375 0 
z
" id="DejaVuSerif-80"/>
       <path d="M 14.015625 67.671875 
L 4.6875 67.671875 
L 4.6875 72.90625 
L 33.203125 72.90625 
L 33.203125 67.671875 
L 23.875 67.671875 
L 23.875 29.984375 
Q 23.875 16.015625 28.4375 10.5 
Q 33.015625 4.984375 44.1875 4.984375 
Q 55.375 4.984375 59.9375 10.5 
Q 64.5 16.015625 64.5 29.984375 
L 64.5 67.671875 
L 55.171875 67.671875 
L 55.171875 72.90625 
L 79.78125 72.90625 
L 79.78125 67.671875 
L 70.515625 67.671875 
L 70.515625 29 
Q 70.515625 12.359375 64.109375 5.46875 
Q 57.71875 -1.421875 42.390625 -1.421875 
Q 27.046875 -1.421875 20.53125 5.515625 
Q 14.015625 12.453125 14.015625 29 
z
" id="DejaVuSerif-85"/>
       <path d="M 8.59375 75.984375 
L 31.296875 75.984375 
L 31.296875 70.796875 
L 17.921875 70.796875 
L 17.921875 -8.015625 
L 31.296875 -8.015625 
L 31.296875 -13.1875 
L 8.59375 -13.1875 
z
" id="DejaVuSerif-91"/>
       <path d="M 22.40625 69.671875 
Q 18.109375 69.671875 15.6875 65.625 
Q 13.28125 61.578125 13.28125 54.296875 
Q 13.28125 47.125 15.75 43.015625 
Q 18.21875 38.921875 22.40625 38.921875 
Q 26.5625 38.921875 28.96875 43 
Q 31.390625 47.078125 31.390625 54.296875 
Q 31.390625 61.53125 28.96875 65.59375 
Q 26.5625 69.671875 22.40625 69.671875 
z
M 72.703125 33.890625 
Q 68.453125 33.890625 66.03125 29.78125 
Q 63.625 25.6875 63.625 18.40625 
Q 63.625 11.234375 66.0625 7.15625 
Q 68.5 3.078125 72.703125 3.078125 
Q 76.90625 3.078125 79.296875 7.15625 
Q 81.6875 11.234375 81.6875 18.40625 
Q 81.6875 25.640625 79.265625 29.765625 
Q 76.859375 33.890625 72.703125 33.890625 
z
M 72.703125 38.28125 
Q 80.421875 38.28125 84.953125 32.90625 
Q 89.5 27.546875 89.5 18.40625 
Q 89.5 9.28125 84.9375 3.921875 
Q 80.375 -1.421875 72.703125 -1.421875 
Q 64.890625 -1.421875 60.34375 3.921875 
Q 55.8125 9.28125 55.8125 18.40625 
Q 55.8125 27.59375 60.375 32.9375 
Q 64.9375 38.28125 72.703125 38.28125 
z
M 66.609375 74.21875 
L 74.03125 74.21875 
L 28.421875 -1.421875 
L 21 -1.421875 
z
M 22.3125 74.21875 
Q 30.03125 74.21875 34.609375 68.875 
Q 39.203125 63.53125 39.203125 54.390625 
Q 39.203125 45.171875 34.640625 39.84375 
Q 30.078125 34.515625 22.3125 34.515625 
Q 14.546875 34.515625 10.03125 39.859375 
Q 5.515625 45.21875 5.515625 54.390625 
Q 5.515625 63.484375 10.046875 68.84375 
Q 14.59375 74.21875 22.3125 74.21875 
z
" id="DejaVuSerif-37"/>
       <path d="M 30.421875 75.984375 
L 30.421875 -13.1875 
L 7.71875 -13.1875 
L 7.71875 -8.015625 
L 21.09375 -8.015625 
L 21.09375 70.796875 
L 7.71875 70.796875 
L 7.71875 75.984375 
z
" id="DejaVuSerif-93"/>
      </defs>
      <use xlink:href="#DejaVuSerif-67"/>
      <use x="76.513672" xlink:href="#DejaVuSerif-80"/>
      <use x="142.048828" xlink:href="#DejaVuSerif-85"/>
      <use x="226.326172" xlink:href="#DejaVuSerif-32"/>
      <use x="258.113281" xlink:href="#DejaVuSerif-91"/>
      <use x="297.126953" xlink:href="#DejaVuSerif-37"/>
      <use x="392.146484" xlink:href="#DejaVuSerif-93"/>
     </g>
    </g>
   </g>
   <g id="line2d_13">
    <path clip-path="url(#p1383295791)" d="M 49.264505 102.081293 
L 52.256758 102.081293 
L 55.249011 104.398645 
L 58.241264 103.626195 
L 61.233516 102.853744 
L 64.225769 77.362871 
L 67.218022 41.83014 
L 70.210275 41.83014 
L 73.202527 97.446589 
L 76.19478 104.398645 
L 79.187033 104.398645 
L 82.179285 104.398645 
L 85.171538 104.398645 
L 88.163791 104.398645 
L 91.156044 57.279154 
L 94.148296 57.279154 
L 97.140549 41.05769 
L 100.132802 41.05769 
L 103.125055 38.740338 
L 106.117307 101.308843 
L 109.10956 101.308843 
L 112.101813 101.308843 
L 115.094065 39.512788 
L 118.086318 39.512788 
L 121.078571 39.512788 
L 124.070824 62.686309 
L 127.063076 65.003661 
L 130.055329 62.686309 
L 133.047582 62.686309 
L 136.039834 62.686309 
L 139.032087 29.470929 
L 142.02434 113.668053 
L 145.016593 113.668053 
L 148.008845 97.446589 
L 151.001098 54.189351 
L 153.993351 54.189351 
L 156.985604 52.64445 
L 159.977856 52.64445 
L 162.970109 68.865914 
L 165.962362 52.64445 
L 168.954614 52.64445 
" style="fill:none;stroke:#1f77b4;stroke-linecap:square;stroke-width:1.5;"/>
   </g>
   <g id="line2d_14">
    <path clip-path="url(#p1383295791)" d="M 49.264505 129.889518 
L 52.256758 129.889518 
L 55.249011 119.075208 
L 58.241264 118.302757 
L 61.233516 118.302757 
L 64.225769 118.302757 
L 67.218022 118.302757 
L 70.210275 118.302757 
L 73.202527 118.302757 
L 76.19478 118.302757 
L 79.187033 118.302757 
L 82.179285 118.302757 
L 85.171538 122.937462 
L 88.163791 129.117067 
L 91.156044 66.548562 
L 94.148296 65.776111 
L 97.140549 65.003661 
L 100.132802 76.590421 
L 103.125055 126.799715 
L 106.117307 126.799715 
L 109.10956 126.799715 
L 112.101813 126.799715 
L 115.094065 126.799715 
L 118.086318 126.799715 
L 121.078571 126.799715 
L 124.070824 111.350701 
L 127.063076 68.093463 
L 130.055329 68.093463 
L 133.047582 68.093463 
L 136.039834 128.344616 
L 139.032087 128.344616 
L 142.02434 128.344616 
L 145.016593 128.344616 
L 148.008845 128.344616 
L 151.001098 128.344616 
L 153.993351 128.344616 
L 156.985604 65.003661 
L 159.977856 65.003661 
L 162.970109 126.799715 
L 165.962362 126.799715 
" style="fill:none;stroke:#d62728;stroke-linecap:square;stroke-width:1.5;"/>
   </g>
   <g id="patch_3">
    <path d="M 43.28 134.910447 
L 43.28 24.45 
" style="fill:none;stroke:#000000;stroke-linecap:square;stroke-linejoin:miter;stroke-width:0.8;"/>
   </g>
   <g id="patch_4">
    <path d="M 174.93912 134.910447 
L 174.93912 24.45 
" style="fill:none;stroke:#000000;stroke-linecap:square;stroke-linejoin:miter;stroke-width:0.8;"/>
   </g>
   <g id="patch_5">
    <path d="M 43.28 134.910447 
L 174.93912 134.910447 
" style="fill:none;stroke:#000000;stroke-linecap:square;stroke-linejoin:miter;stroke-width:0.8;"/>
   </g>
   <g id="patch_6">
    <path d="M 43.28 24.45 
L 174.93912 24.45 
" style="fill:none;stroke:#000000;stroke-linecap:square;stroke-linejoin:miter;stroke-width:0.8;"/>
   </g>
   <g id="text_15">
    <!-- TCP -->
    <g transform="translate(98.58456 18.45)scale(0.1 -0.1)">
     <defs>
      <path d="M 19.09375 0 
L 19.09375 5.171875 
L 28.421875 5.171875 
L 28.421875 67.09375 
L 6.984375 67.09375 
L 6.984375 55.71875 
L 0.984375 55.71875 
L 0.984375 72.90625 
L 65.71875 72.90625 
L 65.71875 55.71875 
L 59.71875 55.71875 
L 59.71875 67.09375 
L 38.28125 67.09375 
L 38.28125 5.171875 
L 47.609375 5.171875 
L 47.609375 0 
z
" id="DejaVuSerif-84"/>
     </defs>
     <use xlink:href="#DejaVuSerif-84"/>
     <use x="66.699219" xlink:href="#DejaVuSerif-67"/>
     <use x="143.212891" xlink:href="#DejaVuSerif-80"/>
    </g>
   </g>
   <g id="legend_1">
    <g id="line2d_15">
     <path d="M 141.404745 29.909062 
L 153.404745 29.909062 
" style="fill:none;stroke:#1f77b4;stroke-linecap:square;stroke-width:1.5;"/>
    </g>
    <g id="line2d_16"/>
    <g id="text_16">
     <!-- CPU -->
     <g transform="translate(158.204745 32.009062)scale(0.06 -0.06)">
      <use xlink:href="#DejaVuSerif-67"/>
      <use x="76.513672" xlink:href="#DejaVuSerif-80"/>
      <use x="142.048828" xlink:href="#DejaVuSerif-85"/>
     </g>
    </g>
    <g id="line2d_17">
     <path d="M 141.404745 35.715937 
L 153.404745 35.715937 
" style="fill:none;stroke:#d62728;stroke-linecap:square;stroke-width:1.5;"/>
    </g>
    <g id="line2d_18"/>
    <g id="text_17">
     <!-- Spin -->
     <g transform="translate(158.204745 37.815937)scale(0.06 -0.06)">
      <defs>
       <path d="M 9.71875 68.015625 
Q 9.71875 70.265625 11.34375 71.921875 
Q 12.984375 73.578125 15.28125 73.578125 
Q 17.53125 73.578125 19.15625 71.921875 
Q 20.796875 70.265625 20.796875 68.015625 
Q 20.796875 65.71875 19.1875 64.109375 
Q 17.578125 62.5 15.28125 62.5 
Q 12.984375 62.5 11.34375 64.109375 
Q 9.71875 65.71875 9.71875 68.015625 
z
M 21.1875 5.171875 
L 29.6875 5.171875 
L 29.6875 0 
L 3.609375 0 
L 3.609375 5.171875 
L 12.203125 5.171875 
L 12.203125 46.6875 
L 3.609375 46.6875 
L 3.609375 51.90625 
L 21.1875 51.90625 
z
" id="DejaVuSerif-105"/>
      </defs>
      <use xlink:href="#DejaVuSerif-83"/>
      <use x="68.505859" xlink:href="#DejaVuSerif-112"/>
      <use x="132.519531" xlink:href="#DejaVuSerif-105"/>
      <use x="164.501953" xlink:href="#DejaVuSerif-110"/>
     </g>
    </g>
   </g>
  </g>
  <g id="axes_2">
   <g id="patch_7">
    <path d="M 202.04 134.910447 
L 333.69912 134.910447 
L 333.69912 24.45 
L 202.04 24.45 
z
" style="fill:#ffffff;"/>
   </g>
   <g id="matplotlib.axis_3">
    <g id="xtick_6">
     <g id="line2d_19">
      <g>
       <use style="stroke:#000000;stroke-width:0.8;" x="208.024505" xlink:href="#md26be22a7e" y="134.910447"/>
      </g>
     </g>
     <g id="text_18">
      <!-- 0 -->
      <g transform="translate(206.115755 142.96951)scale(0.06 -0.06)">
       <use xlink:href="#DejaVuSerif-48"/>
      </g>
     </g>
    </g>
    <g id="xtick_7">
     <g id="line2d_20">
      <g>
       <use style="stroke:#000000;stroke-width:0.8;" x="238.714277" xlink:href="#md26be22a7e" y="134.910447"/>
      </g>
     </g>
     <g id="text_19">
      <!-- 10 -->
      <g transform="translate(234.896777 142.96951)scale(0.06 -0.06)">
       <use xlink:href="#DejaVuSerif-49"/>
       <use x="63.623047" xlink:href="#DejaVuSerif-48"/>
      </g>
     </g>
    </g>
    <g id="xtick_8">
     <g id="line2d_21">
      <g>
       <use style="stroke:#000000;stroke-width:0.8;" x="269.404049" xlink:href="#md26be22a7e" y="134.910447"/>
      </g>
     </g>
     <g id="text_20">
      <!-- 20 -->
      <g transform="translate(265.586549 142.96951)scale(0.06 -0.06)">
       <use xlink:href="#DejaVuSerif-50"/>
       <use x="63.623047" xlink:href="#DejaVuSerif-48"/>
      </g>
     </g>
    </g>
    <g id="xtick_9">
     <g id="line2d_22">
      <g>
       <use style="stroke:#000000;stroke-width:0.8;" x="300.09382" xlink:href="#md26be22a7e" y="134.910447"/>
      </g>
     </g>
     <g id="text_21">
      <!-- 30 -->
      <g transform="translate(296.27632 142.96951)scale(0.06 -0.06)">
       <use xlink:href="#DejaVuSerif-51"/>
       <use x="63.623047" xlink:href="#DejaVuSerif-48"/>
      </g>
     </g>
    </g>
    <g id="xtick_10">
     <g id="line2d_23">
      <g>
       <use style="stroke:#000000;stroke-width:0.8;" x="330.783592" xlink:href="#md26be22a7e" y="134.910447"/>
      </g>
     </g>
     <g id="text_22">
      <!-- 40 -->
      <g transform="translate(326.966092 142.96951)scale(0.06 -0.06)">
       <use xlink:href="#DejaVuSerif-52"/>
       <use x="63.623047" xlink:href="#DejaVuSerif-48"/>
      </g>
     </g>
    </g>
    <g id="text_23">
     <!-- Sample count -->
     <g transform="translate(247.01581 148.776385)scale(0.06 -0.06)">
      <use xlink:href="#DejaVuSerif-83"/>
      <use x="68.505859" xlink:href="#DejaVuSerif-97"/>
      <use x="128.125" xlink:href="#DejaVuSerif-109"/>
      <use x="222.949219" xlink:href="#DejaVuSerif-112"/>
      <use x="286.962891" xlink:href="#DejaVuSerif-108"/>
      <use x="318.945312" xlink:href="#DejaVuSerif-101"/>
      <use x="378.125" xlink:href="#DejaVuSerif-32"/>
      <use x="409.912109" xlink:href="#DejaVuSerif-99"/>
      <use x="465.917969" xlink:href="#DejaVuSerif-111"/>
      <use x="526.123047" xlink:href="#DejaVuSerif-117"/>
      <use x="590.527344" xlink:href="#DejaVuSerif-110"/>
      <use x="654.931641" xlink:href="#DejaVuSerif-116"/>
     </g>
    </g>
   </g>
   <g id="matplotlib.axis_4">
    <g id="ytick_8">
     <g id="line2d_24">
      <g>
       <use style="stroke:#000000;stroke-width:0.8;" x="202.04" xlink:href="#me596497500" y="123.613356"/>
      </g>
     </g>
     <g id="text_24">
      <!-- 0.5 -->
      <g transform="translate(197.292188 130.8757)rotate(-90)scale(0.06 -0.06)">
       <defs>
        <path d="M 9.421875 5.078125 
Q 9.421875 7.8125 11.28125 9.71875 
Q 13.140625 11.625 15.921875 11.625 
Q 18.609375 11.625 20.5 9.71875 
Q 22.40625 7.8125 22.40625 5.078125 
Q 22.40625 2.390625 20.5 0.484375 
Q 18.609375 -1.421875 15.921875 -1.421875 
Q 13.140625 -1.421875 11.28125 0.453125 
Q 9.421875 2.34375 9.421875 5.078125 
z
" id="DejaVuSerif-46"/>
        <path d="M 50.296875 72.90625 
L 50.296875 64.890625 
L 16.890625 64.890625 
L 16.890625 44 
Q 19.4375 45.75 22.828125 46.625 
Q 26.21875 47.515625 30.421875 47.515625 
Q 42.234375 47.515625 49.0625 40.96875 
Q 55.90625 34.421875 55.90625 23.09375 
Q 55.90625 11.53125 49 5.046875 
Q 42.09375 -1.421875 29.59375 -1.421875 
Q 24.5625 -1.421875 19.28125 -0.1875 
Q 14.015625 1.03125 8.5 3.515625 
L 8.5 17.671875 
L 14.015625 17.671875 
Q 14.453125 10.75 18.421875 7.078125 
Q 22.40625 3.421875 29.59375 3.421875 
Q 37.3125 3.421875 41.453125 8.5 
Q 45.609375 13.578125 45.609375 23.09375 
Q 45.609375 32.5625 41.484375 37.609375 
Q 37.359375 42.671875 29.59375 42.671875 
Q 25.203125 42.671875 21.84375 41.109375 
Q 18.5 39.546875 15.921875 36.28125 
L 11.71875 36.28125 
L 11.71875 72.90625 
z
" id="DejaVuSerif-53"/>
       </defs>
       <use xlink:href="#DejaVuSerif-48"/>
       <use x="63.623047" xlink:href="#DejaVuSerif-46"/>
       <use x="95.410156" xlink:href="#DejaVuSerif-53"/>
      </g>
     </g>
    </g>
    <g id="ytick_9">
     <g id="line2d_25">
      <g>
       <use style="stroke:#000000;stroke-width:0.8;" x="202.04" xlink:href="#me596497500" y="107.922951"/>
      </g>
     </g>
     <g id="text_25">
      <!-- 1.0 -->
      <g transform="translate(197.292188 115.185295)rotate(-90)scale(0.06 -0.06)">
       <use xlink:href="#DejaVuSerif-49"/>
       <use x="63.623047" xlink:href="#DejaVuSerif-46"/>
       <use x="95.410156" xlink:href="#DejaVuSerif-48"/>
      </g>
     </g>
    </g>
    <g id="ytick_10">
     <g id="line2d_26">
      <g>
       <use style="stroke:#000000;stroke-width:0.8;" x="202.04" xlink:href="#me596497500" y="92.232547"/>
      </g>
     </g>
     <g id="text_26">
      <!-- 1.5 -->
      <g transform="translate(197.292188 99.494891)rotate(-90)scale(0.06 -0.06)">
       <use xlink:href="#DejaVuSerif-49"/>
       <use x="63.623047" xlink:href="#DejaVuSerif-46"/>
       <use x="95.410156" xlink:href="#DejaVuSerif-53"/>
      </g>
     </g>
    </g>
    <g id="ytick_11">
     <g id="line2d_27">
      <g>
       <use style="stroke:#000000;stroke-width:0.8;" x="202.04" xlink:href="#me596497500" y="76.542143"/>
      </g>
     </g>
     <g id="text_27">
      <!-- 2.0 -->
      <g transform="translate(197.292188 83.804486)rotate(-90)scale(0.06 -0.06)">
       <use xlink:href="#DejaVuSerif-50"/>
       <use x="63.623047" xlink:href="#DejaVuSerif-46"/>
       <use x="95.410156" xlink:href="#DejaVuSerif-48"/>
      </g>
     </g>
    </g>
    <g id="ytick_12">
     <g id="line2d_28">
      <g>
       <use style="stroke:#000000;stroke-width:0.8;" x="202.04" xlink:href="#me596497500" y="60.851738"/>
      </g>
     </g>
     <g id="text_28">
      <!-- 2.5 -->
      <g transform="translate(197.292188 68.114082)rotate(-90)scale(0.06 -0.06)">
       <use xlink:href="#DejaVuSerif-50"/>
       <use x="63.623047" xlink:href="#DejaVuSerif-46"/>
       <use x="95.410156" xlink:href="#DejaVuSerif-53"/>
      </g>
     </g>
    </g>
    <g id="ytick_13">
     <g id="line2d_29">
      <g>
       <use style="stroke:#000000;stroke-width:0.8;" x="202.04" xlink:href="#me596497500" y="45.161334"/>
      </g>
     </g>
     <g id="text_29">
      <!-- 3.0 -->
      <g transform="translate(197.292188 52.423678)rotate(-90)scale(0.06 -0.06)">
       <use xlink:href="#DejaVuSerif-51"/>
       <use x="63.623047" xlink:href="#DejaVuSerif-46"/>
       <use x="95.410156" xlink:href="#DejaVuSerif-48"/>
      </g>
     </g>
    </g>
    <g id="ytick_14">
     <g id="line2d_30">
      <g>
       <use style="stroke:#000000;stroke-width:0.8;" x="202.04" xlink:href="#me596497500" y="29.470929"/>
      </g>
     </g>
     <g id="text_30">
      <!-- 3.5 -->
      <g transform="translate(197.292188 36.733273)rotate(-90)scale(0.06 -0.06)">
       <use xlink:href="#DejaVuSerif-51"/>
       <use x="63.623047" xlink:href="#DejaVuSerif-46"/>
       <use x="95.410156" xlink:href="#DejaVuSerif-53"/>
      </g>
     </g>
    </g>
    <g id="text_31">
     <!-- CPU [%] -->
     <g transform="translate(191.485313 92.614911)rotate(-90)scale(0.06 -0.06)">
      <use xlink:href="#DejaVuSerif-67"/>
      <use x="76.513672" xlink:href="#DejaVuSerif-80"/>
      <use x="142.048828" xlink:href="#DejaVuSerif-85"/>
      <use x="226.326172" xlink:href="#DejaVuSerif-32"/>
      <use x="258.113281" xlink:href="#DejaVuSerif-91"/>
      <use x="297.126953" xlink:href="#DejaVuSerif-37"/>
      <use x="392.146484" xlink:href="#DejaVuSerif-93"/>
     </g>
    </g>
   </g>
   <g id="line2d_31">
    <path clip-path="url(#pcea09d3b87)" d="M 208.024505 79.680224 
L 211.093483 79.680224 
L 214.16246 79.680224 
L 217.231437 79.680224 
L 220.300414 79.680224 
L 223.369391 79.680224 
L 226.438368 29.470929 
L 229.507346 29.470929 
L 232.576323 29.470929 
L 235.6453 29.470929 
L 238.714277 29.470929 
L 241.783254 29.470929 
L 244.852231 29.470929 
L 247.921208 29.470929 
L 250.990186 79.680224 
L 254.059163 79.680224 
L 257.12814 79.680224 
L 260.197117 79.680224 
L 263.266094 79.680224 
L 266.335071 79.680224 
L 269.404049 85.956385 
L 272.473026 85.956385 
L 275.542003 85.956385 
L 278.61098 85.956385 
L 281.679957 85.956385 
L 284.748934 85.956385 
L 287.817911 85.956385 
L 290.886889 101.64679 
L 293.955866 101.64679 
L 297.024843 101.64679 
L 300.09382 101.64679 
L 303.162797 101.64679 
L 306.231774 101.64679 
L 309.300752 101.64679 
L 312.369729 101.64679 
L 315.438706 101.64679 
L 318.507683 101.64679 
L 321.57666 101.64679 
L 324.645637 101.64679 
L 327.714614 101.64679 
" style="fill:none;stroke:#1f77b4;stroke-linecap:square;stroke-width:1.5;"/>
   </g>
   <g id="line2d_32">
    <path clip-path="url(#pcea09d3b87)" d="M 208.024505 120.475275 
L 211.093483 120.475275 
L 214.16246 120.475275 
L 217.231437 120.475275 
L 220.300414 120.475275 
L 223.369391 120.475275 
L 226.438368 120.475275 
L 229.507346 120.475275 
L 232.576323 120.475275 
L 235.6453 120.475275 
L 238.714277 67.1279 
L 241.783254 67.1279 
L 244.852231 67.1279 
L 247.921208 67.1279 
L 250.990186 120.475275 
L 254.059163 120.475275 
L 257.12814 120.475275 
L 260.197117 120.475275 
L 263.266094 120.475275 
L 266.335071 120.475275 
L 269.404049 120.475275 
L 272.473026 120.475275 
L 275.542003 120.475275 
L 278.61098 129.889518 
L 281.679957 129.889518 
L 284.748934 129.889518 
L 287.817911 129.889518 
L 290.886889 129.889518 
L 293.955866 129.889518 
L 297.024843 129.889518 
L 300.09382 129.889518 
L 303.162797 129.889518 
L 306.231774 129.889518 
L 309.300752 129.889518 
L 312.369729 129.889518 
L 315.438706 129.889518 
L 318.507683 129.889518 
L 321.57666 129.889518 
L 324.645637 129.889518 
L 327.714614 129.889518 
" style="fill:none;stroke:#d62728;stroke-linecap:square;stroke-width:1.5;"/>
   </g>
   <g id="patch_8">
    <path d="M 202.04 134.910447 
L 202.04 24.45 
" style="fill:none;stroke:#000000;stroke-linecap:square;stroke-linejoin:miter;stroke-width:0.8;"/>
   </g>
   <g id="patch_9">
    <path d="M 333.69912 134.910447 
L 333.69912 24.45 
" style="fill:none;stroke:#000000;stroke-linecap:square;stroke-linejoin:miter;stroke-width:0.8;"/>
   </g>
   <g id="patch_10">
    <path d="M 202.04 134.910447 
L 333.69912 134.910447 
" style="fill:none;stroke:#000000;stroke-linecap:square;stroke-linejoin:miter;stroke-width:0.8;"/>
   </g>
   <g id="patch_11">
    <path d="M 202.04 24.45 
L 333.69912 24.45 
" style="fill:none;stroke:#000000;stroke-linecap:square;stroke-linejoin:miter;stroke-width:0.8;"/>
   </g>
   <g id="text_32">
    <!-- SHM -->
    <g transform="translate(254.964872 18.45)scale(0.1 -0.1)">
     <defs>
      <path d="M 5.515625 0 
L 5.515625 5.171875 
L 14.796875 5.171875 
L 14.796875 67.671875 
L 5.515625 67.671875 
L 5.515625 72.90625 
L 33.984375 72.90625 
L 33.984375 67.671875 
L 24.703125 67.671875 
L 24.703125 42.484375 
L 62.5 42.484375 
L 62.5 67.671875 
L 53.21875 67.671875 
L 53.21875 72.90625 
L 81.6875 72.90625 
L 81.6875 67.671875 
L 72.40625 67.671875 
L 72.40625 5.171875 
L 81.6875 5.171875 
L 81.6875 0 
L 53.21875 0 
L 53.21875 5.171875 
L 62.5 5.171875 
L 62.5 36.53125 
L 24.703125 36.53125 
L 24.703125 5.171875 
L 33.984375 5.171875 
L 33.984375 0 
z
" id="DejaVuSerif-72"/>
      <path d="M 5.515625 0 
L 5.515625 5.171875 
L 14.796875 5.171875 
L 14.796875 67.671875 
L 4.984375 67.671875 
L 4.984375 72.90625 
L 26.21875 72.90625 
L 51.8125 21 
L 77.390625 72.90625 
L 97.3125 72.90625 
L 97.3125 67.671875 
L 87.59375 67.671875 
L 87.59375 5.171875 
L 96.921875 5.171875 
L 96.921875 0 
L 68.40625 0 
L 68.40625 5.171875 
L 77.6875 5.171875 
L 77.6875 61.53125 
L 52.6875 10.6875 
L 45.796875 10.6875 
L 20.796875 61.53125 
L 20.796875 5.171875 
L 30.078125 5.171875 
L 30.078125 0 
z
" id="DejaVuSerif-77"/>
     </defs>
     <use xlink:href="#DejaVuSerif-83"/>
     <use x="68.505859" xlink:href="#DejaVuSerif-72"/>
     <use x="155.712891" xlink:href="#DejaVuSerif-77"/>
    </g>
   </g>
   <g id="legend_2">
    <g id="line2d_33">
     <path d="M 300.164745 29.909062 
L 312.164745 29.909062 
" style="fill:none;stroke:#1f77b4;stroke-linecap:square;stroke-width:1.5;"/>
    </g>
    <g id="line2d_34"/>
    <g id="text_33">
     <!-- CPU -->
     <g transform="translate(316.964745 32.009062)scale(0.06 -0.06)">
      <use xlink:href="#DejaVuSerif-67"/>
      <use x="76.513672" xlink:href="#DejaVuSerif-80"/>
      <use x="142.048828" xlink:href="#DejaVuSerif-85"/>
     </g>
    </g>
    <g id="line2d_35">
     <path d="M 300.164745 35.715937 
L 312.164745 35.715937 
" style="fill:none;stroke:#d62728;stroke-linecap:square;stroke-width:1.5;"/>
    </g>
    <g id="line2d_36"/>
    <g id="text_34">
     <!-- Spin -->
     <g transform="translate(316.964745 37.815937)scale(0.06 -0.06)">
      <use xlink:href="#DejaVuSerif-83"/>
      <use x="68.505859" xlink:href="#DejaVuSerif-112"/>
      <use x="132.519531" xlink:href="#DejaVuSerif-105"/>
      <use x="164.501953" xlink:href="#DejaVuSerif-110"/>
     </g>
    </g>
   </g>
  </g>
  <g id="axes_3">
   <g id="patch_12">
    <path d="M 43.28 271.535224 
L 174.93912 271.535224 
L 174.93912 161.074776 
L 43.28 161.074776 
z
" style="fill:#ffffff;"/>
   </g>
   <g id="matplotlib.axis_5">
    <g id="xtick_11">
     <g id="line2d_37">
      <g>
       <use style="stroke:#000000;stroke-width:0.8;" x="49.264505" xlink:href="#md26be22a7e" y="271.535224"/>
      </g>
     </g>
     <g id="text_35">
      <!-- 0 -->
      <g transform="translate(47.355755 279.594286)scale(0.06 -0.06)">
       <use xlink:href="#DejaVuSerif-48"/>
      </g>
     </g>
    </g>
    <g id="xtick_12">
     <g id="line2d_38">
      <g>
       <use style="stroke:#000000;stroke-width:0.8;" x="79.954277" xlink:href="#md26be22a7e" y="271.535224"/>
      </g>
     </g>
     <g id="text_36">
      <!-- 10 -->
      <g transform="translate(76.136777 279.594286)scale(0.06 -0.06)">
       <use xlink:href="#DejaVuSerif-49"/>
       <use x="63.623047" xlink:href="#DejaVuSerif-48"/>
      </g>
     </g>
    </g>
    <g id="xtick_13">
     <g id="line2d_39">
      <g>
       <use style="stroke:#000000;stroke-width:0.8;" x="110.644049" xlink:href="#md26be22a7e" y="271.535224"/>
      </g>
     </g>
     <g id="text_37">
      <!-- 20 -->
      <g transform="translate(106.826549 279.594286)scale(0.06 -0.06)">
       <use xlink:href="#DejaVuSerif-50"/>
       <use x="63.623047" xlink:href="#DejaVuSerif-48"/>
      </g>
     </g>
    </g>
    <g id="xtick_14">
     <g id="line2d_40">
      <g>
       <use style="stroke:#000000;stroke-width:0.8;" x="141.33382" xlink:href="#md26be22a7e" y="271.535224"/>
      </g>
     </g>
     <g id="text_38">
      <!-- 30 -->
      <g transform="translate(137.51632 279.594286)scale(0.06 -0.06)">
       <use xlink:href="#DejaVuSerif-51"/>
       <use x="63.623047" xlink:href="#DejaVuSerif-48"/>
      </g>
     </g>
    </g>
    <g id="xtick_15">
     <g id="line2d_41">
      <g>
       <use style="stroke:#000000;stroke-width:0.8;" x="172.023592" xlink:href="#md26be22a7e" y="271.535224"/>
      </g>
     </g>
     <g id="text_39">
      <!-- 40 -->
      <g transform="translate(168.206092 279.594286)scale(0.06 -0.06)">
       <use xlink:href="#DejaVuSerif-52"/>
       <use x="63.623047" xlink:href="#DejaVuSerif-48"/>
      </g>
     </g>
    </g>
    <g id="text_40">
     <!-- Sample count -->
     <g transform="translate(88.25581 285.401161)scale(0.06 -0.06)">
      <use xlink:href="#DejaVuSerif-83"/>
      <use x="68.505859" xlink:href="#DejaVuSerif-97"/>
      <use x="128.125" xlink:href="#DejaVuSerif-109"/>
      <use x="222.949219" xlink:href="#DejaVuSerif-112"/>
      <use x="286.962891" xlink:href="#DejaVuSerif-108"/>
      <use x="318.945312" xlink:href="#DejaVuSerif-101"/>
      <use x="378.125" xlink:href="#DejaVuSerif-32"/>
      <use x="409.912109" xlink:href="#DejaVuSerif-99"/>
      <use x="465.917969" xlink:href="#DejaVuSerif-111"/>
      <use x="526.123047" xlink:href="#DejaVuSerif-117"/>
      <use x="590.527344" xlink:href="#DejaVuSerif-110"/>
      <use x="654.931641" xlink:href="#DejaVuSerif-116"/>
     </g>
    </g>
   </g>
   <g id="matplotlib.axis_6">
    <g id="ytick_15">
     <g id="line2d_42">
      <g>
       <use style="stroke:#000000;stroke-width:0.8;" x="43.28" xlink:href="#me596497500" y="254.500332"/>
      </g>
     </g>
     <g id="text_41">
      <!-- 100 -->
      <g transform="translate(38.532187 263.673301)rotate(-90)scale(0.06 -0.06)">
       <use xlink:href="#DejaVuSerif-49"/>
       <use x="63.623047" xlink:href="#DejaVuSerif-48"/>
       <use x="127.246094" xlink:href="#DejaVuSerif-48"/>
      </g>
     </g>
    </g>
    <g id="ytick_16">
     <g id="line2d_43">
      <g>
       <use style="stroke:#000000;stroke-width:0.8;" x="43.28" xlink:href="#me596497500" y="231.832479"/>
      </g>
     </g>
     <g id="text_42">
      <!-- 200 -->
      <g transform="translate(38.532187 241.005448)rotate(-90)scale(0.06 -0.06)">
       <use xlink:href="#DejaVuSerif-50"/>
       <use x="63.623047" xlink:href="#DejaVuSerif-48"/>
       <use x="127.246094" xlink:href="#DejaVuSerif-48"/>
      </g>
     </g>
    </g>
    <g id="ytick_17">
     <g id="line2d_44">
      <g>
       <use style="stroke:#000000;stroke-width:0.8;" x="43.28" xlink:href="#me596497500" y="209.164626"/>
      </g>
     </g>
     <g id="text_43">
      <!-- 300 -->
      <g transform="translate(38.532187 218.337595)rotate(-90)scale(0.06 -0.06)">
       <use xlink:href="#DejaVuSerif-51"/>
       <use x="63.623047" xlink:href="#DejaVuSerif-48"/>
       <use x="127.246094" xlink:href="#DejaVuSerif-48"/>
      </g>
     </g>
    </g>
    <g id="ytick_18">
     <g id="line2d_45">
      <g>
       <use style="stroke:#000000;stroke-width:0.8;" x="43.28" xlink:href="#me596497500" y="186.496773"/>
      </g>
     </g>
     <g id="text_44">
      <!-- 400 -->
      <g transform="translate(38.532187 195.669742)rotate(-90)scale(0.06 -0.06)">
       <use xlink:href="#DejaVuSerif-52"/>
       <use x="63.623047" xlink:href="#DejaVuSerif-48"/>
       <use x="127.246094" xlink:href="#DejaVuSerif-48"/>
      </g>
     </g>
    </g>
    <g id="ytick_19">
     <g id="line2d_46">
      <g>
       <use style="stroke:#000000;stroke-width:0.8;" x="43.28" xlink:href="#me596497500" y="163.828921"/>
      </g>
     </g>
     <g id="text_45">
      <!-- 500 -->
      <g transform="translate(38.532187 173.001889)rotate(-90)scale(0.06 -0.06)">
       <use xlink:href="#DejaVuSerif-53"/>
       <use x="63.623047" xlink:href="#DejaVuSerif-48"/>
       <use x="127.246094" xlink:href="#DejaVuSerif-48"/>
      </g>
     </g>
    </g>
    <g id="text_46">
     <!-- CPU [%] -->
     <g transform="translate(32.725313 229.239688)rotate(-90)scale(0.06 -0.06)">
      <use xlink:href="#DejaVuSerif-67"/>
      <use x="76.513672" xlink:href="#DejaVuSerif-80"/>
      <use x="142.048828" xlink:href="#DejaVuSerif-85"/>
      <use x="226.326172" xlink:href="#DejaVuSerif-32"/>
      <use x="258.113281" xlink:href="#DejaVuSerif-91"/>
      <use x="297.126953" xlink:href="#DejaVuSerif-37"/>
      <use x="392.146484" xlink:href="#DejaVuSerif-93"/>
     </g>
    </g>
   </g>
   <g id="line2d_47">
    <path clip-path="url(#p7b8d891858)" d="M 49.264505 201.684235 
L 52.333483 214.446236 
L 55.40246 230.041719 
L 58.471437 228.885658 
L 61.540414 215.896979 
L 64.609391 213.56219 
L 67.678368 213.199504 
L 70.747346 198.828085 
L 73.816323 224.782777 
L 76.8853 231.039104 
L 79.954277 231.152444 
L 83.023254 218.73046 
L 86.092231 218.639789 
L 89.161208 219.795849 
L 92.230186 220.883906 
L 95.299163 202.590949 
L 98.36814 212.655476 
L 101.437117 218.231767 
L 104.506094 230.925765 
L 107.575071 215.964982 
L 110.644049 215.511625 
L 113.713026 215.964982 
L 116.782003 217.325053 
L 119.85098 216.191661 
L 122.919957 189.216916 
L 125.988934 166.095706 
L 129.057911 181.283167 
L 132.126889 213.924875 
L 135.195866 229.565694 
L 138.264843 213.018161 
L 141.33382 211.884769 
L 144.402797 212.791483 
L 147.471774 212.111447 
L 150.540752 225.258802 
L 153.609729 213.24484 
L 156.678706 231.832479 
L 159.747683 217.551732 
L 162.81666 216.191661 
L 165.885637 218.231767 
L 168.954614 218.458446 
" style="fill:none;stroke:#1f77b4;stroke-linecap:square;stroke-width:1.5;"/>
   </g>
   <g id="line2d_48">
    <path clip-path="url(#p7b8d891858)" d="M 49.264505 254.046975 
L 52.333483 254.046975 
L 55.40246 248.153333 
L 58.471437 237.726121 
L 61.540414 237.499442 
L 64.609391 239.539549 
L 67.678368 237.952799 
L 70.747346 237.952799 
L 73.816323 253.366939 
L 76.8853 253.366939 
L 79.954277 253.366939 
L 83.023254 266.514294 
L 86.092231 243.393084 
L 89.161208 245.433191 
L 92.230186 256.540439 
L 95.299163 256.540439 
L 98.36814 238.179478 
L 101.437117 237.499442 
L 104.506094 236.819407 
L 107.575071 237.499442 
L 110.644049 237.499442 
L 113.713026 250.420119 
L 116.782003 236.36605 
L 119.85098 252.006868 
L 122.919957 233.19255 
L 125.988934 252.460225 
L 129.057911 256.31376 
L 132.126889 233.645907 
L 135.195866 249.513404 
L 138.264843 251.78019 
L 141.33382 251.78019 
L 144.402797 248.833369 
L 147.471774 242.259692 
L 150.540752 244.526477 
L 153.609729 244.753155 
L 156.678706 253.140261 
L 159.747683 253.140261 
L 162.81666 253.140261 
L 165.885637 238.179478 
L 168.954614 238.179478 
" style="fill:none;stroke:#d62728;stroke-linecap:square;stroke-width:1.5;"/>
   </g>
   <g id="patch_13">
    <path d="M 43.28 271.535224 
L 43.28 161.074776 
" style="fill:none;stroke:#000000;stroke-linecap:square;stroke-linejoin:miter;stroke-width:0.8;"/>
   </g>
   <g id="patch_14">
    <path d="M 174.93912 271.535224 
L 174.93912 161.074776 
" style="fill:none;stroke:#000000;stroke-linecap:square;stroke-linejoin:miter;stroke-width:0.8;"/>
   </g>
   <g id="patch_15">
    <path d="M 43.28 271.535224 
L 174.93912 271.535224 
" style="fill:none;stroke:#000000;stroke-linecap:square;stroke-linejoin:miter;stroke-width:0.8;"/>
   </g>
   <g id="patch_16">
    <path d="M 43.28 161.074776 
L 174.93912 161.074776 
" style="fill:none;stroke:#000000;stroke-linecap:square;stroke-linejoin:miter;stroke-width:0.8;"/>
   </g>
   <g id="legend_3">
    <g id="line2d_49">
     <path d="M 141.404745 166.533839 
L 153.404745 166.533839 
" style="fill:none;stroke:#1f77b4;stroke-linecap:square;stroke-width:1.5;"/>
    </g>
    <g id="line2d_50"/>
    <g id="text_47">
     <!-- CPU -->
     <g transform="translate(158.204745 168.633839)scale(0.06 -0.06)">
      <use xlink:href="#DejaVuSerif-67"/>
      <use x="76.513672" xlink:href="#DejaVuSerif-80"/>
      <use x="142.048828" xlink:href="#DejaVuSerif-85"/>
     </g>
    </g>
    <g id="line2d_51">
     <path d="M 141.404745 172.340714 
L 153.404745 172.340714 
" style="fill:none;stroke:#d62728;stroke-linecap:square;stroke-width:1.5;"/>
    </g>
    <g id="line2d_52"/>
    <g id="text_48">
     <!-- Spin -->
     <g transform="translate(158.204745 174.440714)scale(0.06 -0.06)">
      <use xlink:href="#DejaVuSerif-83"/>
      <use x="68.505859" xlink:href="#DejaVuSerif-112"/>
      <use x="132.519531" xlink:href="#DejaVuSerif-105"/>
      <use x="164.501953" xlink:href="#DejaVuSerif-110"/>
     </g>
    </g>
   </g>
  </g>
  <g id="axes_4">
   <g id="patch_17">
    <path d="M 202.04 271.535224 
L 333.69912 271.535224 
L 333.69912 161.074776 
L 202.04 161.074776 
z
" style="fill:#ffffff;"/>
   </g>
   <g id="matplotlib.axis_7">
    <g id="xtick_16">
     <g id="line2d_53">
      <g>
       <use style="stroke:#000000;stroke-width:0.8;" x="208.024505" xlink:href="#md26be22a7e" y="271.535224"/>
      </g>
     </g>
     <g id="text_49">
      <!-- 0 -->
      <g transform="translate(206.115755 279.594286)scale(0.06 -0.06)">
       <use xlink:href="#DejaVuSerif-48"/>
      </g>
     </g>
    </g>
    <g id="xtick_17">
     <g id="line2d_54">
      <g>
       <use style="stroke:#000000;stroke-width:0.8;" x="238.714277" xlink:href="#md26be22a7e" y="271.535224"/>
      </g>
     </g>
     <g id="text_50">
      <!-- 10 -->
      <g transform="translate(234.896777 279.594286)scale(0.06 -0.06)">
       <use xlink:href="#DejaVuSerif-49"/>
       <use x="63.623047" xlink:href="#DejaVuSerif-48"/>
      </g>
     </g>
    </g>
    <g id="xtick_18">
     <g id="line2d_55">
      <g>
       <use style="stroke:#000000;stroke-width:0.8;" x="269.404049" xlink:href="#md26be22a7e" y="271.535224"/>
      </g>
     </g>
     <g id="text_51">
      <!-- 20 -->
      <g transform="translate(265.586549 279.594286)scale(0.06 -0.06)">
       <use xlink:href="#DejaVuSerif-50"/>
       <use x="63.623047" xlink:href="#DejaVuSerif-48"/>
      </g>
     </g>
    </g>
    <g id="xtick_19">
     <g id="line2d_56">
      <g>
       <use style="stroke:#000000;stroke-width:0.8;" x="300.09382" xlink:href="#md26be22a7e" y="271.535224"/>
      </g>
     </g>
     <g id="text_52">
      <!-- 30 -->
      <g transform="translate(296.27632 279.594286)scale(0.06 -0.06)">
       <use xlink:href="#DejaVuSerif-51"/>
       <use x="63.623047" xlink:href="#DejaVuSerif-48"/>
      </g>
     </g>
    </g>
    <g id="xtick_20">
     <g id="line2d_57">
      <g>
       <use style="stroke:#000000;stroke-width:0.8;" x="330.783592" xlink:href="#md26be22a7e" y="271.535224"/>
      </g>
     </g>
     <g id="text_53">
      <!-- 40 -->
      <g transform="translate(326.966092 279.594286)scale(0.06 -0.06)">
       <use xlink:href="#DejaVuSerif-52"/>
       <use x="63.623047" xlink:href="#DejaVuSerif-48"/>
      </g>
     </g>
    </g>
    <g id="text_54">
     <!-- Sample count -->
     <g transform="translate(247.01581 285.401161)scale(0.06 -0.06)">
      <use xlink:href="#DejaVuSerif-83"/>
      <use x="68.505859" xlink:href="#DejaVuSerif-97"/>
      <use x="128.125" xlink:href="#DejaVuSerif-109"/>
      <use x="222.949219" xlink:href="#DejaVuSerif-112"/>
      <use x="286.962891" xlink:href="#DejaVuSerif-108"/>
      <use x="318.945312" xlink:href="#DejaVuSerif-101"/>
      <use x="378.125" xlink:href="#DejaVuSerif-32"/>
      <use x="409.912109" xlink:href="#DejaVuSerif-99"/>
      <use x="465.917969" xlink:href="#DejaVuSerif-111"/>
      <use x="526.123047" xlink:href="#DejaVuSerif-117"/>
      <use x="590.527344" xlink:href="#DejaVuSerif-110"/>
      <use x="654.931641" xlink:href="#DejaVuSerif-116"/>
     </g>
    </g>
   </g>
   <g id="matplotlib.axis_8">
    <g id="ytick_20">
     <g id="line2d_58">
      <g>
       <use style="stroke:#000000;stroke-width:0.8;" x="202.04" xlink:href="#me596497500" y="257.385332"/>
      </g>
     </g>
     <g id="text_55">
      <!-- 4 -->
      <g transform="translate(197.292188 258.9233)rotate(-90)scale(0.06 -0.06)">
       <use xlink:href="#DejaVuSerif-52"/>
      </g>
     </g>
    </g>
    <g id="ytick_21">
     <g id="line2d_59">
      <g>
       <use style="stroke:#000000;stroke-width:0.8;" x="202.04" xlink:href="#me596497500" y="239.127406"/>
      </g>
     </g>
     <g id="text_56">
      <!-- 5 -->
      <g transform="translate(197.292188 240.665375)rotate(-90)scale(0.06 -0.06)">
       <use xlink:href="#DejaVuSerif-53"/>
      </g>
     </g>
    </g>
    <g id="ytick_22">
     <g id="line2d_60">
      <g>
       <use style="stroke:#000000;stroke-width:0.8;" x="202.04" xlink:href="#me596497500" y="220.869481"/>
      </g>
     </g>
     <g id="text_57">
      <!-- 6 -->
      <g transform="translate(197.292188 222.40745)rotate(-90)scale(0.06 -0.06)">
       <use xlink:href="#DejaVuSerif-54"/>
      </g>
     </g>
    </g>
    <g id="ytick_23">
     <g id="line2d_61">
      <g>
       <use style="stroke:#000000;stroke-width:0.8;" x="202.04" xlink:href="#me596497500" y="202.611556"/>
      </g>
     </g>
     <g id="text_58">
      <!-- 7 -->
      <g transform="translate(197.292188 204.149525)rotate(-90)scale(0.06 -0.06)">
       <defs>
        <path d="M 56.390625 67.921875 
L 27.875 0 
L 20.609375 0 
L 47.796875 64.890625 
L 14.109375 64.890625 
L 14.109375 55.90625 
L 8.40625 55.90625 
L 8.40625 72.90625 
L 56.390625 72.90625 
z
" id="DejaVuSerif-55"/>
       </defs>
       <use xlink:href="#DejaVuSerif-55"/>
      </g>
     </g>
    </g>
    <g id="ytick_24">
     <g id="line2d_62">
      <g>
       <use style="stroke:#000000;stroke-width:0.8;" x="202.04" xlink:href="#me596497500" y="184.353631"/>
      </g>
     </g>
     <g id="text_59">
      <!-- 8 -->
      <g transform="translate(197.292188 185.8916)rotate(-90)scale(0.06 -0.06)">
       <use xlink:href="#DejaVuSerif-56"/>
      </g>
     </g>
    </g>
    <g id="ytick_25">
     <g id="line2d_63">
      <g>
       <use style="stroke:#000000;stroke-width:0.8;" x="202.04" xlink:href="#me596497500" y="166.095706"/>
      </g>
     </g>
     <g id="text_60">
      <!-- 9 -->
      <g transform="translate(197.292188 167.633675)rotate(-90)scale(0.06 -0.06)">
       <defs>
        <path d="M 46.78125 32.671875 
Q 43.5 29 39.25 27.1875 
Q 35.015625 25.390625 29.6875 25.390625 
Q 18.84375 25.390625 12.5625 31.9375 
Q 6.296875 38.484375 6.296875 49.8125 
Q 6.296875 60.890625 13.109375 67.546875 
Q 19.921875 74.21875 31.296875 74.21875 
Q 43.65625 74.21875 50.265625 65.015625 
Q 56.890625 55.8125 56.890625 38.71875 
Q 56.890625 19.578125 49.015625 9.078125 
Q 41.15625 -1.421875 26.90625 -1.421875 
Q 23.046875 -1.421875 18.796875 -0.6875 
Q 14.546875 0.046875 10.109375 1.515625 
L 10.109375 13.625 
L 15.578125 13.625 
Q 16.21875 8.6875 19.390625 6.046875 
Q 22.5625 3.421875 27.875 3.421875 
Q 37.359375 3.421875 41.984375 10.5625 
Q 46.625 17.71875 46.78125 32.671875 
z
M 30.90625 69.390625 
Q 23.96875 69.390625 20.28125 64.328125 
Q 16.609375 59.28125 16.609375 49.8125 
Q 16.609375 40.328125 20.28125 35.25 
Q 23.96875 30.171875 30.90625 30.171875 
Q 37.84375 30.171875 41.53125 35.078125 
Q 45.21875 39.984375 45.21875 49.21875 
Q 45.21875 58.9375 41.5 64.15625 
Q 37.796875 69.390625 30.90625 69.390625 
z
" id="DejaVuSerif-57"/>
       </defs>
       <use xlink:href="#DejaVuSerif-57"/>
      </g>
     </g>
    </g>
    <g id="text_61">
     <!-- CPU [%] -->
     <g transform="translate(191.485313 229.239688)rotate(-90)scale(0.06 -0.06)">
      <use xlink:href="#DejaVuSerif-67"/>
      <use x="76.513672" xlink:href="#DejaVuSerif-80"/>
      <use x="142.048828" xlink:href="#DejaVuSerif-85"/>
      <use x="226.326172" xlink:href="#DejaVuSerif-32"/>
      <use x="258.113281" xlink:href="#DejaVuSerif-91"/>
      <use x="297.126953" xlink:href="#DejaVuSerif-37"/>
      <use x="392.146484" xlink:href="#DejaVuSerif-93"/>
     </g>
    </g>
   </g>
   <g id="line2d_64">
    <path clip-path="url(#pc17b118e3c)" d="M 208.024505 226.346859 
L 211.093483 226.346859 
L 214.16246 226.346859 
L 217.231437 226.346859 
L 220.300414 228.172651 
L 223.369391 229.998444 
L 226.438368 233.650029 
L 229.507346 166.095706 
L 232.576323 166.095706 
L 235.6453 166.095706 
L 238.714277 166.095706 
L 241.783254 166.095706 
L 244.852231 166.095706 
L 247.921208 166.095706 
L 250.990186 166.095706 
L 254.059163 166.095706 
L 257.12814 166.095706 
L 260.197117 250.082161 
L 263.266094 250.082161 
L 266.335071 250.082161 
L 269.404049 250.082161 
L 272.473026 250.082161 
L 275.542003 250.082161 
L 278.61098 250.082161 
L 281.679957 250.082161 
L 284.748934 250.082161 
L 287.817911 250.082161 
L 290.886889 250.082161 
L 293.955866 239.127406 
L 297.024843 239.127406 
L 300.09382 239.127406 
L 303.162797 239.127406 
L 306.231774 239.127406 
L 309.300752 246.430576 
L 312.369729 246.430576 
L 315.438706 246.430576 
L 318.507683 246.430576 
L 321.57666 246.430576 
L 324.645637 246.430576 
L 327.714614 246.430576 
" style="fill:none;stroke:#1f77b4;stroke-linecap:square;stroke-width:1.5;"/>
   </g>
   <g id="line2d_65">
    <path clip-path="url(#pc17b118e3c)" d="M 208.024505 233.650029 
L 211.093483 233.650029 
L 214.16246 233.650029 
L 217.231437 233.650029 
L 220.300414 233.650029 
L 223.369391 235.475821 
L 226.438368 235.475821 
L 229.507346 222.695274 
L 232.576323 173.398876 
L 235.6453 173.398876 
L 238.714277 173.398876 
L 241.783254 173.398876 
L 244.852231 173.398876 
L 247.921208 255.559539 
L 250.990186 255.559539 
L 254.059163 255.559539 
L 257.12814 255.559539 
L 260.197117 255.559539 
L 263.266094 255.559539 
L 266.335071 255.559539 
L 269.404049 255.559539 
L 272.473026 255.559539 
L 275.542003 255.559539 
L 278.61098 255.559539 
L 281.679957 255.559539 
L 284.748934 255.559539 
L 287.817911 255.559539 
L 290.886889 255.559539 
L 293.955866 259.211124 
L 297.024843 259.211124 
L 300.09382 259.211124 
L 303.162797 259.211124 
L 306.231774 259.211124 
L 309.300752 266.514294 
L 312.369729 266.514294 
L 315.438706 266.514294 
L 318.507683 266.514294 
L 321.57666 266.514294 
L 324.645637 266.514294 
L 327.714614 266.514294 
" style="fill:none;stroke:#d62728;stroke-linecap:square;stroke-width:1.5;"/>
   </g>
   <g id="patch_18">
    <path d="M 202.04 271.535224 
L 202.04 161.074776 
" style="fill:none;stroke:#000000;stroke-linecap:square;stroke-linejoin:miter;stroke-width:0.8;"/>
   </g>
   <g id="patch_19">
    <path d="M 333.69912 271.535224 
L 333.69912 161.074776 
" style="fill:none;stroke:#000000;stroke-linecap:square;stroke-linejoin:miter;stroke-width:0.8;"/>
   </g>
   <g id="patch_20">
    <path d="M 202.04 271.535224 
L 333.69912 271.535224 
" style="fill:none;stroke:#000000;stroke-linecap:square;stroke-linejoin:miter;stroke-width:0.8;"/>
   </g>
   <g id="patch_21">
    <path d="M 202.04 161.074776 
L 333.69912 161.074776 
" style="fill:none;stroke:#000000;stroke-linecap:square;stroke-linejoin:miter;stroke-width:0.8;"/>
   </g>
   <g id="legend_4">
    <g id="line2d_66">
     <path d="M 300.164745 166.533839 
L 312.164745 166.533839 
" style="fill:none;stroke:#1f77b4;stroke-linecap:square;stroke-width:1.5;"/>
    </g>
    <g id="line2d_67"/>
    <g id="text_62">
     <!-- CPU -->
     <g transform="translate(316.964745 168.633839)scale(0.06 -0.06)">
      <use xlink:href="#DejaVuSerif-67"/>
      <use x="76.513672" xlink:href="#DejaVuSerif-80"/>
      <use x="142.048828" xlink:href="#DejaVuSerif-85"/>
     </g>
    </g>
    <g id="line2d_68">
     <path d="M 300.164745 172.340714 
L 312.164745 172.340714 
" style="fill:none;stroke:#d62728;stroke-linecap:square;stroke-width:1.5;"/>
    </g>
    <g id="line2d_69"/>
    <g id="text_63">
     <!-- Spin -->
     <g transform="translate(316.964745 174.440714)scale(0.06 -0.06)">
      <use xlink:href="#DejaVuSerif-83"/>
      <use x="68.505859" xlink:href="#DejaVuSerif-112"/>
      <use x="132.519531" xlink:href="#DejaVuSerif-105"/>
      <use x="164.501953" xlink:href="#DejaVuSerif-110"/>
     </g>
    </g>
   </g>
  </g>
  <g id="axes_5">
   <g id="patch_22">
    <path d="M 43.28 408.16 
L 174.93912 408.16 
L 174.93912 297.699553 
L 43.28 297.699553 
z
" style="fill:#ffffff;"/>
   </g>
   <g id="matplotlib.axis_9">
    <g id="xtick_21">
     <g id="line2d_70">
      <g>
       <use style="stroke:#000000;stroke-width:0.8;" x="49.264505" xlink:href="#md26be22a7e" y="408.16"/>
      </g>
     </g>
     <g id="text_64">
      <!-- 0 -->
      <g transform="translate(47.355755 416.219063)scale(0.06 -0.06)">
       <use xlink:href="#DejaVuSerif-48"/>
      </g>
     </g>
    </g>
    <g id="xtick_22">
     <g id="line2d_71">
      <g>
       <use style="stroke:#000000;stroke-width:0.8;" x="79.954277" xlink:href="#md26be22a7e" y="408.16"/>
      </g>
     </g>
     <g id="text_65">
      <!-- 10 -->
      <g transform="translate(76.136777 416.219063)scale(0.06 -0.06)">
       <use xlink:href="#DejaVuSerif-49"/>
       <use x="63.623047" xlink:href="#DejaVuSerif-48"/>
      </g>
     </g>
    </g>
    <g id="xtick_23">
     <g id="line2d_72">
      <g>
       <use style="stroke:#000000;stroke-width:0.8;" x="110.644049" xlink:href="#md26be22a7e" y="408.16"/>
      </g>
     </g>
     <g id="text_66">
      <!-- 20 -->
      <g transform="translate(106.826549 416.219063)scale(0.06 -0.06)">
       <use xlink:href="#DejaVuSerif-50"/>
       <use x="63.623047" xlink:href="#DejaVuSerif-48"/>
      </g>
     </g>
    </g>
    <g id="xtick_24">
     <g id="line2d_73">
      <g>
       <use style="stroke:#000000;stroke-width:0.8;" x="141.33382" xlink:href="#md26be22a7e" y="408.16"/>
      </g>
     </g>
     <g id="text_67">
      <!-- 30 -->
      <g transform="translate(137.51632 416.219063)scale(0.06 -0.06)">
       <use xlink:href="#DejaVuSerif-51"/>
       <use x="63.623047" xlink:href="#DejaVuSerif-48"/>
      </g>
     </g>
    </g>
    <g id="xtick_25">
     <g id="line2d_74">
      <g>
       <use style="stroke:#000000;stroke-width:0.8;" x="172.023592" xlink:href="#md26be22a7e" y="408.16"/>
      </g>
     </g>
     <g id="text_68">
      <!-- 40 -->
      <g transform="translate(168.206092 416.219063)scale(0.06 -0.06)">
       <use xlink:href="#DejaVuSerif-52"/>
       <use x="63.623047" xlink:href="#DejaVuSerif-48"/>
      </g>
     </g>
    </g>
    <g id="text_69">
     <!-- Sample count -->
     <g transform="translate(88.25581 422.025937)scale(0.06 -0.06)">
      <use xlink:href="#DejaVuSerif-83"/>
      <use x="68.505859" xlink:href="#DejaVuSerif-97"/>
      <use x="128.125" xlink:href="#DejaVuSerif-109"/>
      <use x="222.949219" xlink:href="#DejaVuSerif-112"/>
      <use x="286.962891" xlink:href="#DejaVuSerif-108"/>
      <use x="318.945312" xlink:href="#DejaVuSerif-101"/>
      <use x="378.125" xlink:href="#DejaVuSerif-32"/>
      <use x="409.912109" xlink:href="#DejaVuSerif-99"/>
      <use x="465.917969" xlink:href="#DejaVuSerif-111"/>
      <use x="526.123047" xlink:href="#DejaVuSerif-117"/>
      <use x="590.527344" xlink:href="#DejaVuSerif-110"/>
      <use x="654.931641" xlink:href="#DejaVuSerif-116"/>
     </g>
    </g>
   </g>
   <g id="matplotlib.axis_10">
    <g id="ytick_26">
     <g id="line2d_75">
      <g>
       <use style="stroke:#000000;stroke-width:0.8;" x="43.28" xlink:href="#me596497500" y="398.328398"/>
      </g>
     </g>
     <g id="text_70">
      <!-- 100 -->
      <g transform="translate(38.532187 407.501367)rotate(-90)scale(0.06 -0.06)">
       <use xlink:href="#DejaVuSerif-49"/>
       <use x="63.623047" xlink:href="#DejaVuSerif-48"/>
       <use x="127.246094" xlink:href="#DejaVuSerif-48"/>
      </g>
     </g>
    </g>
    <g id="ytick_27">
     <g id="line2d_76">
      <g>
       <use style="stroke:#000000;stroke-width:0.8;" x="43.28" xlink:href="#me596497500" y="381.507864"/>
      </g>
     </g>
     <g id="text_71">
      <!-- 150 -->
      <g transform="translate(38.532187 390.680833)rotate(-90)scale(0.06 -0.06)">
       <use xlink:href="#DejaVuSerif-49"/>
       <use x="63.623047" xlink:href="#DejaVuSerif-53"/>
       <use x="127.246094" xlink:href="#DejaVuSerif-48"/>
      </g>
     </g>
    </g>
    <g id="ytick_28">
     <g id="line2d_77">
      <g>
       <use style="stroke:#000000;stroke-width:0.8;" x="43.28" xlink:href="#me596497500" y="364.68733"/>
      </g>
     </g>
     <g id="text_72">
      <!-- 200 -->
      <g transform="translate(38.532187 373.860299)rotate(-90)scale(0.06 -0.06)">
       <use xlink:href="#DejaVuSerif-50"/>
       <use x="63.623047" xlink:href="#DejaVuSerif-48"/>
       <use x="127.246094" xlink:href="#DejaVuSerif-48"/>
      </g>
     </g>
    </g>
    <g id="ytick_29">
     <g id="line2d_78">
      <g>
       <use style="stroke:#000000;stroke-width:0.8;" x="43.28" xlink:href="#me596497500" y="347.866796"/>
      </g>
     </g>
     <g id="text_73">
      <!-- 250 -->
      <g transform="translate(38.532187 357.039764)rotate(-90)scale(0.06 -0.06)">
       <use xlink:href="#DejaVuSerif-50"/>
       <use x="63.623047" xlink:href="#DejaVuSerif-53"/>
       <use x="127.246094" xlink:href="#DejaVuSerif-48"/>
      </g>
     </g>
    </g>
    <g id="ytick_30">
     <g id="line2d_79">
      <g>
       <use style="stroke:#000000;stroke-width:0.8;" x="43.28" xlink:href="#me596497500" y="331.046262"/>
      </g>
     </g>
     <g id="text_74">
      <!-- 300 -->
      <g transform="translate(38.532187 340.21923)rotate(-90)scale(0.06 -0.06)">
       <use xlink:href="#DejaVuSerif-51"/>
       <use x="63.623047" xlink:href="#DejaVuSerif-48"/>
       <use x="127.246094" xlink:href="#DejaVuSerif-48"/>
      </g>
     </g>
    </g>
    <g id="ytick_31">
     <g id="line2d_80">
      <g>
       <use style="stroke:#000000;stroke-width:0.8;" x="43.28" xlink:href="#me596497500" y="314.225728"/>
      </g>
     </g>
     <g id="text_75">
      <!-- 350 -->
      <g transform="translate(38.532187 323.398696)rotate(-90)scale(0.06 -0.06)">
       <use xlink:href="#DejaVuSerif-51"/>
       <use x="63.623047" xlink:href="#DejaVuSerif-53"/>
       <use x="127.246094" xlink:href="#DejaVuSerif-48"/>
      </g>
     </g>
    </g>
    <g id="text_76">
     <!-- CPU [%] -->
     <g transform="translate(32.725313 365.864464)rotate(-90)scale(0.06 -0.06)">
      <use xlink:href="#DejaVuSerif-67"/>
      <use x="76.513672" xlink:href="#DejaVuSerif-80"/>
      <use x="142.048828" xlink:href="#DejaVuSerif-85"/>
      <use x="226.326172" xlink:href="#DejaVuSerif-32"/>
      <use x="258.113281" xlink:href="#DejaVuSerif-91"/>
      <use x="297.126953" xlink:href="#DejaVuSerif-37"/>
      <use x="392.146484" xlink:href="#DejaVuSerif-93"/>
     </g>
    </g>
   </g>
   <g id="line2d_81">
    <path clip-path="url(#pf971e01693)" d="M 49.264505 331.046262 
L 52.333483 331.214467 
L 55.40246 334.343086 
L 58.471437 322.669636 
L 61.540414 324.856305 
L 64.609391 343.224328 
L 67.678368 343.157046 
L 70.747346 343.089764 
L 73.816323 343.392534 
L 76.8853 328.590464 
L 79.954277 315.504088 
L 83.023254 312.308187 
L 86.092231 329.397849 
L 89.161208 330.003389 
L 92.230186 311.198032 
L 95.299163 318.363579 
L 98.36814 303.292381 
L 101.437117 313.014649 
L 104.506094 321.189429 
L 107.575071 340.297555 
L 110.644049 341.138582 
L 113.713026 341.104941 
L 116.782003 308.372182 
L 119.85098 302.720482 
L 122.919957 330.777133 
L 125.988934 332.862879 
L 129.057911 335.285036 
L 132.126889 308.708592 
L 135.195866 324.217125 
L 138.264843 311.938135 
L 141.33382 325.058152 
L 144.402797 339.893863 
L 147.471774 342.585148 
L 150.540752 343.728944 
L 153.609729 328.994157 
L 156.678706 318.868195 
L 159.747683 313.754753 
L 162.81666 336.294268 
L 165.885637 314.898549 
L 168.954614 309.280491 
" style="fill:none;stroke:#1f77b4;stroke-linecap:square;stroke-width:1.5;"/>
   </g>
   <g id="line2d_82">
    <path clip-path="url(#pf971e01693)" d="M 49.264505 381.205094 
L 52.333483 386.318537 
L 55.40246 390.119977 
L 58.471437 378.88386 
L 61.540414 378.917502 
L 64.609391 379.018425 
L 67.678368 379.758528 
L 70.747346 380.061298 
L 73.816323 365.259228 
L 76.8853 368.993386 
L 79.954277 371.987442 
L 83.023254 386.049408 
L 86.092231 382.113403 
L 89.161208 381.036889 
L 92.230186 381.541505 
L 95.299163 359.742093 
L 98.36814 351.836442 
L 101.437117 373.703136 
L 104.506094 374.577804 
L 107.575071 368.690617 
L 110.644049 356.714397 
L 113.713026 356.714397 
L 116.782003 363.038917 
L 119.85098 378.951143 
L 122.919957 381.036889 
L 125.988934 383.29084 
L 129.057911 384.199149 
L 132.126889 356.714397 
L 135.195866 356.714397 
L 138.264843 370.507235 
L 141.33382 383.761815 
L 144.402797 359.001989 
L 147.471774 359.03563 
L 150.540752 358.867425 
L 153.609729 357.319936 
L 156.678706 356.949884 
L 159.747683 396.108087 
L 162.81666 403.139071 
L 165.885637 403.139071 
L 168.954614 396.242652 
" style="fill:none;stroke:#d62728;stroke-linecap:square;stroke-width:1.5;"/>
   </g>
   <g id="patch_23">
    <path d="M 43.28 408.16 
L 43.28 297.699553 
" style="fill:none;stroke:#000000;stroke-linecap:square;stroke-linejoin:miter;stroke-width:0.8;"/>
   </g>
   <g id="patch_24">
    <path d="M 174.93912 408.16 
L 174.93912 297.699553 
" style="fill:none;stroke:#000000;stroke-linecap:square;stroke-linejoin:miter;stroke-width:0.8;"/>
   </g>
   <g id="patch_25">
    <path d="M 43.28 408.16 
L 174.93912 408.16 
" style="fill:none;stroke:#000000;stroke-linecap:square;stroke-linejoin:miter;stroke-width:0.8;"/>
   </g>
   <g id="patch_26">
    <path d="M 43.28 297.699553 
L 174.93912 297.699553 
" style="fill:none;stroke:#000000;stroke-linecap:square;stroke-linejoin:miter;stroke-width:0.8;"/>
   </g>
   <g id="legend_5">
    <g id="line2d_83">
     <path d="M 46.28 303.158615 
L 58.28 303.158615 
" style="fill:none;stroke:#1f77b4;stroke-linecap:square;stroke-width:1.5;"/>
    </g>
    <g id="line2d_84"/>
    <g id="text_77">
     <!-- CPU -->
     <g transform="translate(63.08 305.258615)scale(0.06 -0.06)">
      <use xlink:href="#DejaVuSerif-67"/>
      <use x="76.513672" xlink:href="#DejaVuSerif-80"/>
      <use x="142.048828" xlink:href="#DejaVuSerif-85"/>
     </g>
    </g>
    <g id="line2d_85">
     <path d="M 46.28 308.96549 
L 58.28 308.96549 
" style="fill:none;stroke:#d62728;stroke-linecap:square;stroke-width:1.5;"/>
    </g>
    <g id="line2d_86"/>
    <g id="text_78">
     <!-- Spin -->
     <g transform="translate(63.08 311.06549)scale(0.06 -0.06)">
      <use xlink:href="#DejaVuSerif-83"/>
      <use x="68.505859" xlink:href="#DejaVuSerif-112"/>
      <use x="132.519531" xlink:href="#DejaVuSerif-105"/>
      <use x="164.501953" xlink:href="#DejaVuSerif-110"/>
     </g>
    </g>
   </g>
  </g>
  <g id="axes_6">
   <g id="patch_27">
    <path d="M 202.04 408.16 
L 333.69912 408.16 
L 333.69912 297.699553 
L 202.04 297.699553 
z
" style="fill:#ffffff;"/>
   </g>
   <g id="matplotlib.axis_11">
    <g id="xtick_26">
     <g id="line2d_87">
      <g>
       <use style="stroke:#000000;stroke-width:0.8;" x="208.024505" xlink:href="#md26be22a7e" y="408.16"/>
      </g>
     </g>
     <g id="text_79">
      <!-- 0 -->
      <g transform="translate(206.115755 416.219063)scale(0.06 -0.06)">
       <use xlink:href="#DejaVuSerif-48"/>
      </g>
     </g>
    </g>
    <g id="xtick_27">
     <g id="line2d_88">
      <g>
       <use style="stroke:#000000;stroke-width:0.8;" x="238.714277" xlink:href="#md26be22a7e" y="408.16"/>
      </g>
     </g>
     <g id="text_80">
      <!-- 10 -->
      <g transform="translate(234.896777 416.219063)scale(0.06 -0.06)">
       <use xlink:href="#DejaVuSerif-49"/>
       <use x="63.623047" xlink:href="#DejaVuSerif-48"/>
      </g>
     </g>
    </g>
    <g id="xtick_28">
     <g id="line2d_89">
      <g>
       <use style="stroke:#000000;stroke-width:0.8;" x="269.404049" xlink:href="#md26be22a7e" y="408.16"/>
      </g>
     </g>
     <g id="text_81">
      <!-- 20 -->
      <g transform="translate(265.586549 416.219063)scale(0.06 -0.06)">
       <use xlink:href="#DejaVuSerif-50"/>
       <use x="63.623047" xlink:href="#DejaVuSerif-48"/>
      </g>
     </g>
    </g>
    <g id="xtick_29">
     <g id="line2d_90">
      <g>
       <use style="stroke:#000000;stroke-width:0.8;" x="300.09382" xlink:href="#md26be22a7e" y="408.16"/>
      </g>
     </g>
     <g id="text_82">
      <!-- 30 -->
      <g transform="translate(296.27632 416.219063)scale(0.06 -0.06)">
       <use xlink:href="#DejaVuSerif-51"/>
       <use x="63.623047" xlink:href="#DejaVuSerif-48"/>
      </g>
     </g>
    </g>
    <g id="xtick_30">
     <g id="line2d_91">
      <g>
       <use style="stroke:#000000;stroke-width:0.8;" x="330.783592" xlink:href="#md26be22a7e" y="408.16"/>
      </g>
     </g>
     <g id="text_83">
      <!-- 40 -->
      <g transform="translate(326.966092 416.219063)scale(0.06 -0.06)">
       <use xlink:href="#DejaVuSerif-52"/>
       <use x="63.623047" xlink:href="#DejaVuSerif-48"/>
      </g>
     </g>
    </g>
    <g id="text_84">
     <!-- Sample count -->
     <g transform="translate(247.01581 422.025937)scale(0.06 -0.06)">
      <use xlink:href="#DejaVuSerif-83"/>
      <use x="68.505859" xlink:href="#DejaVuSerif-97"/>
      <use x="128.125" xlink:href="#DejaVuSerif-109"/>
      <use x="222.949219" xlink:href="#DejaVuSerif-112"/>
      <use x="286.962891" xlink:href="#DejaVuSerif-108"/>
      <use x="318.945312" xlink:href="#DejaVuSerif-101"/>
      <use x="378.125" xlink:href="#DejaVuSerif-32"/>
      <use x="409.912109" xlink:href="#DejaVuSerif-99"/>
      <use x="465.917969" xlink:href="#DejaVuSerif-111"/>
      <use x="526.123047" xlink:href="#DejaVuSerif-117"/>
      <use x="590.527344" xlink:href="#DejaVuSerif-110"/>
      <use x="654.931641" xlink:href="#DejaVuSerif-116"/>
     </g>
    </g>
   </g>
   <g id="matplotlib.axis_12">
    <g id="ytick_32">
     <g id="line2d_92">
      <g>
       <use style="stroke:#000000;stroke-width:0.8;" x="202.04" xlink:href="#me596497500" y="407.155814"/>
      </g>
     </g>
     <g id="text_85">
      <!-- 2 -->
      <g transform="translate(197.292188 408.693783)rotate(-90)scale(0.06 -0.06)">
       <use xlink:href="#DejaVuSerif-50"/>
      </g>
     </g>
    </g>
    <g id="ytick_33">
     <g id="line2d_93">
      <g>
       <use style="stroke:#000000;stroke-width:0.8;" x="202.04" xlink:href="#me596497500" y="393.766669"/>
      </g>
     </g>
     <g id="text_86">
      <!-- 3 -->
      <g transform="translate(197.292188 395.304638)rotate(-90)scale(0.06 -0.06)">
       <use xlink:href="#DejaVuSerif-51"/>
      </g>
     </g>
    </g>
    <g id="ytick_34">
     <g id="line2d_94">
      <g>
       <use style="stroke:#000000;stroke-width:0.8;" x="202.04" xlink:href="#me596497500" y="380.377524"/>
      </g>
     </g>
     <g id="text_87">
      <!-- 4 -->
      <g transform="translate(197.292188 381.915493)rotate(-90)scale(0.06 -0.06)">
       <use xlink:href="#DejaVuSerif-52"/>
      </g>
     </g>
    </g>
    <g id="ytick_35">
     <g id="line2d_95">
      <g>
       <use style="stroke:#000000;stroke-width:0.8;" x="202.04" xlink:href="#me596497500" y="366.988379"/>
      </g>
     </g>
     <g id="text_88">
      <!-- 5 -->
      <g transform="translate(197.292188 368.526348)rotate(-90)scale(0.06 -0.06)">
       <use xlink:href="#DejaVuSerif-53"/>
      </g>
     </g>
    </g>
    <g id="ytick_36">
     <g id="line2d_96">
      <g>
       <use style="stroke:#000000;stroke-width:0.8;" x="202.04" xlink:href="#me596497500" y="353.599234"/>
      </g>
     </g>
     <g id="text_89">
      <!-- 6 -->
      <g transform="translate(197.292188 355.137202)rotate(-90)scale(0.06 -0.06)">
       <use xlink:href="#DejaVuSerif-54"/>
      </g>
     </g>
    </g>
    <g id="ytick_37">
     <g id="line2d_97">
      <g>
       <use style="stroke:#000000;stroke-width:0.8;" x="202.04" xlink:href="#me596497500" y="340.210089"/>
      </g>
     </g>
     <g id="text_90">
      <!-- 7 -->
      <g transform="translate(197.292188 341.748057)rotate(-90)scale(0.06 -0.06)">
       <use xlink:href="#DejaVuSerif-55"/>
      </g>
     </g>
    </g>
    <g id="ytick_38">
     <g id="line2d_98">
      <g>
       <use style="stroke:#000000;stroke-width:0.8;" x="202.04" xlink:href="#me596497500" y="326.820944"/>
      </g>
     </g>
     <g id="text_91">
      <!-- 8 -->
      <g transform="translate(197.292188 328.358912)rotate(-90)scale(0.06 -0.06)">
       <use xlink:href="#DejaVuSerif-56"/>
      </g>
     </g>
    </g>
    <g id="ytick_39">
     <g id="line2d_99">
      <g>
       <use style="stroke:#000000;stroke-width:0.8;" x="202.04" xlink:href="#me596497500" y="313.431798"/>
      </g>
     </g>
     <g id="text_92">
      <!-- 9 -->
      <g transform="translate(197.292188 314.969767)rotate(-90)scale(0.06 -0.06)">
       <use xlink:href="#DejaVuSerif-57"/>
      </g>
     </g>
    </g>
    <g id="ytick_40">
     <g id="line2d_100">
      <g>
       <use style="stroke:#000000;stroke-width:0.8;" x="202.04" xlink:href="#me596497500" y="300.042653"/>
      </g>
     </g>
     <g id="text_93">
      <!-- 10 -->
      <g transform="translate(197.292188 305.398122)rotate(-90)scale(0.06 -0.06)">
       <use xlink:href="#DejaVuSerif-49"/>
       <use x="63.623047" xlink:href="#DejaVuSerif-48"/>
      </g>
     </g>
    </g>
    <g id="text_94">
     <!-- CPU [%] -->
     <g transform="translate(191.485313 365.864464)rotate(-90)scale(0.06 -0.06)">
      <use xlink:href="#DejaVuSerif-67"/>
      <use x="76.513672" xlink:href="#DejaVuSerif-80"/>
      <use x="142.048828" xlink:href="#DejaVuSerif-85"/>
      <use x="226.326172" xlink:href="#DejaVuSerif-32"/>
      <use x="258.113281" xlink:href="#DejaVuSerif-91"/>
      <use x="297.126953" xlink:href="#DejaVuSerif-37"/>
      <use x="392.146484" xlink:href="#DejaVuSerif-93"/>
     </g>
    </g>
   </g>
   <g id="line2d_101">
    <path clip-path="url(#pdd06d5030c)" d="M 208.024505 385.733182 
L 211.093483 385.733182 
L 214.16246 385.733182 
L 217.231437 385.733182 
L 220.300414 385.733182 
L 223.369391 385.733182 
L 226.438368 385.733182 
L 229.507346 385.733182 
L 232.576323 385.733182 
L 235.6453 385.733182 
L 238.714277 365.649464 
L 241.783254 365.649464 
L 244.852231 365.649464 
L 247.921208 365.649464 
L 250.990186 365.649464 
L 254.059163 365.649464 
L 257.12814 365.649464 
L 260.197117 336.193345 
L 263.266094 336.193345 
L 266.335071 336.193345 
L 269.404049 336.193345 
L 272.473026 336.193345 
L 275.542003 336.193345 
L 278.61098 336.193345 
L 281.679957 336.193345 
L 284.748934 336.193345 
L 287.817911 336.193345 
L 290.886889 302.720482 
L 293.955866 302.720482 
L 297.024843 302.720482 
L 300.09382 302.720482 
L 303.162797 302.720482 
L 306.231774 302.720482 
L 309.300752 302.720482 
L 312.369729 302.720482 
L 315.438706 302.720482 
L 318.507683 302.720482 
L 321.57666 302.720482 
L 324.645637 302.720482 
L 327.714614 302.720482 
" style="fill:none;stroke:#1f77b4;stroke-linecap:square;stroke-width:1.5;"/>
   </g>
   <g id="line2d_102">
    <path clip-path="url(#pdd06d5030c)" d="M 208.024505 403.139071 
L 211.093483 403.139071 
L 214.16246 403.139071 
L 217.231437 403.139071 
L 220.300414 403.139071 
L 223.369391 403.139071 
L 226.438368 403.139071 
L 229.507346 403.139071 
L 232.576323 403.139071 
L 235.6453 403.139071 
L 238.714277 383.055353 
L 241.783254 383.055353 
L 244.852231 383.055353 
L 247.921208 383.055353 
L 250.990186 383.055353 
L 254.059163 383.055353 
L 257.12814 383.055353 
L 260.197117 353.599234 
L 263.266094 353.599234 
L 266.335071 353.599234 
L 269.404049 353.599234 
L 272.473026 353.599234 
L 275.542003 353.599234 
L 278.61098 353.599234 
L 281.679957 353.599234 
L 284.748934 353.599234 
L 287.817911 353.599234 
L 290.886889 320.126371 
L 293.955866 320.126371 
L 297.024843 320.126371 
L 300.09382 320.126371 
L 303.162797 320.126371 
L 306.231774 320.126371 
L 309.300752 320.126371 
L 312.369729 320.126371 
L 315.438706 320.126371 
L 318.507683 320.126371 
L 321.57666 320.126371 
L 324.645637 320.126371 
L 327.714614 320.126371 
" style="fill:none;stroke:#d62728;stroke-linecap:square;stroke-width:1.5;"/>
   </g>
   <g id="patch_28">
    <path d="M 202.04 408.16 
L 202.04 297.699553 
" style="fill:none;stroke:#000000;stroke-linecap:square;stroke-linejoin:miter;stroke-width:0.8;"/>
   </g>
   <g id="patch_29">
    <path d="M 333.69912 408.16 
L 333.69912 297.699553 
" style="fill:none;stroke:#000000;stroke-linecap:square;stroke-linejoin:miter;stroke-width:0.8;"/>
   </g>
   <g id="patch_30">
    <path d="M 202.04 408.16 
L 333.69912 408.16 
" style="fill:none;stroke:#000000;stroke-linecap:square;stroke-linejoin:miter;stroke-width:0.8;"/>
   </g>
   <g id="patch_31">
    <path d="M 202.04 297.699553 
L 333.69912 297.699553 
" style="fill:none;stroke:#000000;stroke-linecap:square;stroke-linejoin:miter;stroke-width:0.8;"/>
   </g>
   <g id="legend_6">
    <g id="line2d_103">
     <path d="M 205.04 303.158615 
L 217.04 303.158615 
" style="fill:none;stroke:#1f77b4;stroke-linecap:square;stroke-width:1.5;"/>
    </g>
    <g id="line2d_104"/>
    <g id="text_95">
     <!-- CPU -->
     <g transform="translate(221.84 305.258615)scale(0.06 -0.06)">
      <use xlink:href="#DejaVuSerif-67"/>
      <use x="76.513672" xlink:href="#DejaVuSerif-80"/>
      <use x="142.048828" xlink:href="#DejaVuSerif-85"/>
     </g>
    </g>
    <g id="line2d_105">
     <path d="M 205.04 308.96549 
L 217.04 308.96549 
" style="fill:none;stroke:#d62728;stroke-linecap:square;stroke-width:1.5;"/>
    </g>
    <g id="line2d_106"/>
    <g id="text_96">
     <!-- Spin -->
     <g transform="translate(221.84 311.06549)scale(0.06 -0.06)">
      <use xlink:href="#DejaVuSerif-83"/>
      <use x="68.505859" xlink:href="#DejaVuSerif-112"/>
      <use x="132.519531" xlink:href="#DejaVuSerif-105"/>
      <use x="164.501953" xlink:href="#DejaVuSerif-110"/>
     </g>
    </g>
   </g>
  </g>
  <g id="text_97">
   <!-- 1p1s -->
   <g transform="translate(14.510438 77.252906)rotate(-90)scale(0.1 -0.1)">
    <defs>
     <path d="M 5.609375 2.875 
L 5.609375 14.984375 
L 10.796875 14.984375 
Q 10.984375 9.1875 14.421875 6.296875 
Q 17.875 3.421875 24.609375 3.421875 
Q 30.671875 3.421875 33.84375 5.6875 
Q 37.015625 7.953125 37.015625 12.3125 
Q 37.015625 15.71875 34.6875 17.8125 
Q 32.375 19.921875 24.90625 22.3125 
L 18.40625 24.515625 
Q 11.71875 26.65625 8.71875 29.875 
Q 5.71875 33.109375 5.71875 38.09375 
Q 5.71875 45.21875 10.9375 49.265625 
Q 16.15625 53.328125 25.390625 53.328125 
Q 29.5 53.328125 34.03125 52.25 
Q 38.578125 51.171875 43.40625 49.125 
L 43.40625 37.796875 
L 38.234375 37.796875 
Q 38.03125 42.828125 34.703125 45.65625 
Q 31.390625 48.484375 25.6875 48.484375 
Q 20.015625 48.484375 17.109375 46.484375 
Q 14.203125 44.484375 14.203125 40.484375 
Q 14.203125 37.203125 16.40625 35.21875 
Q 18.609375 33.25 25.203125 31.203125 
L 32.328125 29 
Q 39.703125 26.703125 42.9375 23.265625 
Q 46.1875 19.828125 46.1875 14.40625 
Q 46.1875 7.03125 40.546875 2.796875 
Q 34.90625 -1.421875 25 -1.421875 
Q 19.96875 -1.421875 15.1875 -0.34375 
Q 10.40625 0.734375 5.609375 2.875 
z
" id="DejaVuSerif-115"/>
    </defs>
    <use xlink:href="#DejaVuSerif-49"/>
    <use x="63.623047" xlink:href="#DejaVuSerif-112"/>
    <use x="127.636719" xlink:href="#DejaVuSerif-49"/>
    <use x="191.259766" xlink:href="#DejaVuSerif-115"/>
   </g>
  </g>
  <g id="text_98">
   <!-- 1p5s -->
   <g transform="translate(14.510438 229.208906)rotate(-90)scale(0.1 -0.1)">
    <use xlink:href="#DejaVuSerif-49"/>
    <use x="63.623047" xlink:href="#DejaVuSerif-112"/>
    <use x="127.636719" xlink:href="#DejaVuSerif-53"/>
    <use x="191.259766" xlink:href="#DejaVuSerif-115"/>
   </g>
  </g>
  <g id="text_99">
   <!-- 5p1s -->
   <g transform="translate(14.510438 381.164906)rotate(-90)scale(0.1 -0.1)">
    <use xlink:href="#DejaVuSerif-53"/>
    <use x="63.623047" xlink:href="#DejaVuSerif-112"/>
    <use x="127.636719" xlink:href="#DejaVuSerif-49"/>
    <use x="191.259766" xlink:href="#DejaVuSerif-115"/>
   </g>
  </g>
 </g>
 <defs>
  <clipPath id="p1383295791">
   <rect height="110.460447" width="131.65912" x="43.28" y="24.45"/>
  </clipPath>
  <clipPath id="pcea09d3b87">
   <rect height="110.460447" width="131.65912" x="202.04" y="24.45"/>
  </clipPath>
  <clipPath id="p7b8d891858">
   <rect height="110.460447" width="131.65912" x="43.28" y="161.074776"/>
  </clipPath>
  <clipPath id="pc17b118e3c">
   <rect height="110.460447" width="131.65912" x="202.04" y="161.074776"/>
  </clipPath>
  <clipPath id="pf971e01693">
   <rect height="110.460447" width="131.65912" x="43.28" y="297.699553"/>
  </clipPath>
  <clipPath id="pdd06d5030c">
   <rect height="110.460447" width="131.65912" x="202.04" y="297.699553"/>
  </clipPath>
 </defs>
</svg>
